<?xml version="1.0" encoding="UTF-8" standalone="no"?>
<!-- Created with Inkscape (http://www.inkscape.org/) -->

<svg
   xmlns:dc="http://purl.org/dc/elements/1.1/"
   xmlns:cc="http://creativecommons.org/ns#"
   xmlns:rdf="http://www.w3.org/1999/02/22-rdf-syntax-ns#"
   xmlns:svg="http://www.w3.org/2000/svg"
   xmlns="http://www.w3.org/2000/svg"
   xmlns:sodipodi="http://sodipodi.sourceforge.net/DTD/sodipodi-0.dtd"
   xmlns:inkscape="http://www.inkscape.org/namespaces/inkscape"
   width="1328"
   height="664"
   viewBox="0 0 351.36667 175.68333"
   version="1.1"
   id="svg8"
   inkscape:version="0.92.2 (5c3e80d, 2017-08-06)"
   sodipodi:docname="logo.svg">
  <defs
     id="defs2" />
  <sodipodi:namedview
     id="base"
     pagecolor="#ffffff"
     bordercolor="#666666"
     borderopacity="1.0"
     inkscape:pageopacity="0"
     inkscape:pageshadow="2"
     inkscape:zoom="1.42"
     inkscape:cx="498.55916"
     inkscape:cy="309.14293"
     inkscape:document-units="px"
     inkscape:current-layer="layer1"
     showgrid="false"
     units="px"
     inkscape:pagecheckerboard="false"
     inkscape:window-width="3840"
     inkscape:window-height="2022"
     inkscape:window-x="0"
     inkscape:window-y="48"
     inkscape:window-maximized="1" />
  <metadata
     id="metadata5">
    <rdf:RDF>
      <cc:Work
         rdf:about="">
        <dc:format>image/svg+xml</dc:format>
        <dc:type
           rdf:resource="http://purl.org/dc/dcmitype/StillImage" />
        <dc:title></dc:title>
      </cc:Work>
    </rdf:RDF>
  </metadata>
  <g
     inkscape:label="Layer 1"
     inkscape:groupmode="layer"
     id="layer1"
     transform="translate(25.135359,-55.700015)">
    <g
       id="g4639">
      <rect
         y="55.700012"
         x="-25.135359"
         height="175.68333"
         width="351.36667"
         id="rect4630"
         style="fill:#a0b1a0;fill-opacity:1;stroke-width:0.31360319" />
      <g
         transform="translate(50.099182)"
         id="g4628">
        <g
           id="g4591"
           transform="translate(200.67342,-13.22918)">
          <path
             style="fill:#a0b1a0;stroke-width:0.26458332"
             d="M -100.1317,244.61251 H -225.80878 V 156.77085 68.929184 H -100.1317 25.54539 v 87.841666 87.84166 z"
             id="path4595"
             inkscape:connector-curvature="0" />
          <path
             style="fill:#474b39;stroke-width:0.26458332"
             d="m -66.000445,244.52783 h -1.719791 l 0.859896,-0.10672 0.859895,-0.10671 0.859896,0.10671 0.859896,0.10672 z m 8.731251,0.0847 h -0.352777 l 0.176387,-0.17639 0.17639,-0.17638 0.176389,0.17638 0.176387,0.17639 z m 1.984375,-0.0351 -1.322917,-0.019 0.920832,-0.21655 0.920832,-0.21654 0.402085,0.23558 0.402084,0.23559 z m -5.618224,-1.68121 -3.113027,0.0779 -1.322916,-0.18479 -1.322917,-0.18479 -1.762718,-0.82878 -1.762717,-0.82878 -1.394759,-1.74051 -1.394759,-1.74051 -0.612836,-0.40155 -0.612836,-0.40155 v -0.59648 -0.59649 l -0.389266,-0.55575 -0.389265,-0.55576 -0.0089,-1.55364 -0.0089,-1.55363 0.0041,-0.52917 0.0041,-0.52917 -0.291957,-1.62512 -0.291955,-1.62511 0.287584,-0.53736 0.287583,-0.53736 0.119182,-2.60002 0.119182,-2.60003 0.411562,-1.15774 0.411559,-1.15774 v -0.72324 -0.72323 l 1.058333,-1.20233 1.058334,-1.20233 v -0.43297 -0.43296 l 0.529166,-1.03725 0.529167,-1.03725 v -0.6855 -0.6855 l 0.917543,-0.38338 0.917544,-0.38337 h 0.159689 0.159689 l -0.424908,0.42491 -0.424904,0.4249 0.276976,0.33374 0.276979,0.33374 -0.353515,0.2934 -0.353518,0.29339 -0.311203,-0.31121 -0.311253,-0.3112 v 0.56003 0.56004 l 0.330729,0.12127 0.330729,0.12126 -0.341746,0.36159 -0.341746,0.36159 -0.206156,-0.33356 -0.206155,-0.33357 -0.29183,0.60036 -0.29183,0.60036 -0.162391,1.811 -0.162393,1.811 -0.416412,1.09942 -0.416412,1.09942 -0.306922,1.5875 -0.306922,1.5875 -0.319482,0.56748 -0.319482,0.5675 -0.17613,1.49858 -0.176128,1.49859 0.567423,0.76748 0.567423,0.76748 v 1.0615 1.06151 l 0.661458,1.49567 0.661458,1.49568 v 0.7949 0.79491 l 0.954895,1.05695 0.954894,1.05695 -0.359582,0.22784 -0.359582,0.22783 0.341443,0.004 0.341444,0.004 0.849181,0.59055 0.849182,0.59056 0.617596,0.53392 0.617596,0.53392 h 0.816941 0.816938 l 0.551532,1.05834 0.551531,1.05833 2.831746,0.075 2.831745,0.075 1.089105,-1.15734 1.089104,-1.15735 0.878861,-0.033 0.878862,-0.033 0.35797,-0.0752 0.357974,-0.0752 0.02,0.66146 0.02,0.66146 -0.372618,0.44187 -0.372618,0.44188 -1.36719,0.32038 -1.367189,0.32037 -0.326557,0.25887 -0.326557,0.25887 -3.113026,0.0779 z m 4.365797,-1.40555 0.1059,-0.3177 h 0.374824 0.374828 v -0.24897 -0.24897 l -0.201356,-0.12444 -0.201356,-0.12445 -0.486598,0.35581 -0.486598,0.35581 0.20723,0.3353 0.207227,0.3353 z m -138.885734,0.81566 -0.43817,0.15387 -0.46274,-0.51132 -0.46274,-0.51133 h -0.46658 -0.46658 l -0.55074,-0.89112 -0.55075,-0.89113 v -0.66807 -0.66806 l -0.39192,-0.15039 -0.39192,-0.1504 0.0187,-2.58989 0.0187,-2.58989 0.50553,-1.56506 0.50554,-1.56505 v -0.6283 -0.6283 l 0.52916,-1.03725 0.52917,-1.03725 v -0.55523 -0.55522 l 0.83814,-1.04295 0.83814,-1.04295 0.12055,-1.45367 0.12055,-1.45368 0.89674,-0.55422 0.89674,-0.55421 0.31801,-0.57167 0.318,-0.57166 0.0145,-0.13229 0.0145,-0.13229 0.51492,-0.8599 0.51491,-0.8599 h 0.20753 0.20754 v -1.01661 -1.01662 l 1.44326,-1.29849 1.44327,-1.29848 -0.14368,-0.57399 -0.14368,-0.57398 1.03778,-0.59728 1.03778,-0.59727 0.32557,-0.81311 0.32556,-0.81312 0.24941,-0.39688 0.24941,-0.39687 0.31473,-0.66146 0.31473,-0.66146 1.2047,-1.28418 1.2047,-1.28418 0.75559,-0.76634 0.75558,-0.76634 h 0.27761 0.27761 l -0.43474,0.48038 -0.43474,0.48038 -0.1709,0.85452 -0.1709,0.85451 -1.28745,1.33576 -1.28745,1.33575 v 0.33265 0.33265 l -0.70213,1.29618 -0.70213,1.29618 -0.35424,0.68481 -0.35424,0.68482 -0.56545,0.50581 -0.56545,0.50581 -0.58481,0.92604 -0.58481,0.92604 -0.17218,0.69779 -0.17217,0.69778 -1.03629,1.37917 -1.0363,1.37918 -0.17523,0.9341 -0.17524,0.93411 -0.69982,1.08998 -0.69981,1.08997 0.0568,0.19844 0.0568,0.19844 h -0.26458 -0.26458 v 0.26687 0.26688 l -0.78763,1.08728 -0.78761,1.08727 -0.17379,0.96096 -0.17378,0.96095 -0.40404,0.79375 -0.40405,0.79375 -0.35095,1.85208 -0.35094,1.85208 -0.30253,1.80333 -0.30252,1.80333 0.29913,0.65652 0.29912,0.65651 v 0.43352 0.43352 l 0.56492,0.60133 0.56492,0.60132 2.11696,-0.16324 2.11696,-0.16325 -0.12253,0.36761 -0.12254,0.36761 -0.97184,0.22983 -0.97185,0.22984 v 0.32447 0.32447 l -0.59531,0.53586 -0.59531,0.53586 z m -28.53372,-2.21252 -0.66145,-0.0127 -0.59532,-0.23929 -0.59531,-0.23929 v -1.7127 -1.7127 l 0.28219,-0.1744 0.28218,-0.1744 0.12601,0.126 0.126,0.126 0.16596,1.02271 0.16596,1.02271 0.28575,0.28446 0.28574,0.28447 0.74339,0.48617 0.74339,0.48618 -0.34651,0.21976 -0.34652,0.21975 z m 1.45521,-1.03751 h -0.13229 v -0.13229 -0.13229 h 0.13229 0.13229 v 0.13229 0.13229 z m 69.63595,-0.28249 -0.31511,-0.0179 -0.66146,-0.27558 -0.66146,-0.27558 -1.14356,-0.52835 -1.14357,-0.52836 -0.14906,-0.38845 -0.14907,-0.38846 0.34279,-1.03866 0.34279,-1.03866 h 0.22224 0.22223 v -0.75451 -0.75451 l 0.72761,-0.77141 0.7276,-0.77141 0.30674,-0.65689 0.30673,-0.6569 0.19829,-0.52916 0.19829,-0.52917 -0.0388,-0.18891 -0.0388,-0.18892 0.37341,0.14329 0.37341,0.14329 0.28459,-0.53177 0.2846,-0.53177 0.48708,-0.15459 0.48709,-0.1546 0.37309,-0.72322 0.37309,-0.72321 0.84124,-0.91329 0.84123,-0.9133 0.31242,0.68568 0.31242,0.68568 -0.55834,0.55835 -0.55835,0.55834 h -0.39687 -0.39688 l -0.006,0.46302 -0.006,0.46302 -0.51742,0.66146 -0.5174,0.66146 -0.006,0.4474 -0.006,0.44741 -0.26458,0.16352 -0.26459,0.16352 v 0.62107 0.62108 l -0.5067,-0.13251 -0.50669,-0.1325 -0.4431,0.67625 -0.4431,0.67625 -0.0183,1.21362 -0.0183,1.21362 0.5215,0.69849 0.52149,0.69848 1.43613,0.32345 1.43614,0.32344 0.25317,-0.15647 0.25317,-0.15646 -0.59922,0.84152 -0.59921,0.84152 h -0.89241 -0.89241 l -0.16352,0.26459 -0.16352,0.26458 -0.31512,-0.0179 z m 3.35666,-12.94667 h 0.36447 l 0.32938,-0.39688 0.32938,-0.39687 h -0.27534 -0.27534 l -0.41852,0.1606 -0.41851,0.1606 v 0.23627 0.23628 z m 6.79649,12.7 h -0.45415 l -0.60947,-0.64875 -0.60947,-0.64875 0.1539,-0.58849 0.15389,-0.5885 -0.45044,-0.76603 -0.45044,-0.76604 -0.75035,-0.15101 -0.75034,-0.15101 -0.1316,-0.34295 -0.13161,-0.34295 1.48697,-1.48697 1.48697,-1.48697 0.15195,-0.75976 0.15195,-0.75976 0.56595,-0.51729 0.56594,-0.51729 0.63444,-0.19294 0.63443,-0.19295 -0.17141,0.85707 -0.17142,0.85707 v 0.61917 0.61919 l -0.81857,0.9323 -0.81857,0.9323 -0.14379,1.58572 -0.14379,1.58572 0.3333,0.4016 0.3333,0.4016 h 0.98551 0.9855 l 0.26336,0.59022 0.26336,0.59021 -1.04557,0.46812 -1.04557,0.46812 z m -39.31472,-0.52917 h -0.44889 l 0.17041,-0.99219 0.17042,-0.99218 0.3042,-1.32292 0.30419,-1.32292 0.21629,-0.25135 0.21629,-0.25136 v -0.42674 -0.42675 l 0.77379,-0.74134 0.77379,-0.74134 -0.13037,-0.33973 -0.13037,-0.33974 0.28263,-0.17467 0.28262,-0.17466 v -0.60484 -0.60484 l 0.55953,-0.50403 0.55953,-0.50402 0.23359,-0.52917 0.23358,-0.52917 0.24613,-0.39687 0.24612,-0.39688 0.14308,-0.46302 0.14308,-0.46302 h 0.56022 0.56022 l -0.0889,1.12448 -0.0889,1.12448 -0.79375,0.79375 -0.79375,0.79375 -0.46302,1.00116 -0.46302,1.00117 v 0.86415 0.86414 l -0.27923,0.27923 -0.27923,0.27923 0.17562,0.69973 0.17562,0.69973 h 0.2359 0.2359 v 0.2753 0.2753 l -0.57892,0.78303 -0.57893,0.78304 h -0.29843 -0.29844 l -0.81985,0.92604 -0.81986,0.92604 z m 142.597013,0 h -1.13194 l -0.54837,-0.69714 -0.548371,-0.69714 0.01151,-0.55963 0.01151,-0.55963 0.20823,-1.07359 0.208227,-1.07359 -0.184711,-0.51391 -0.184708,-0.51391 0.494125,-0.7023 0.494125,-0.7023 v -0.38355 -0.38354 l 0.616294,-0.63395 0.616292,-0.63394 0.508187,-0.43723 0.508186,-0.43723 0.723352,-0.81954 0.723352,-0.81955 h 0.385511 0.385514 l 0.163521,0.26459 0.16352,0.26458 h -0.677071 -0.677074 v 0.25466 0.25466 l -0.533178,1.42505 -0.53318,1.42505 -0.955662,0.95565 -0.955659,0.95567 0.125925,1.51848 0.125924,1.51849 0.289718,0.0966 0.289719,0.0966 -0.145738,0.37978 -0.145735,0.37978 h 1.451121 1.451118 l 0.338682,0.40809 0.338685,0.40808 -0.240141,0.21726 -0.240141,0.21726 -0.899377,0.3007 -0.89938,0.30069 h -1.131937 z m 10.946932,-0.1619 -0.979593,0.15502 -0.40947,-0.5846 -0.409466,-0.58459 v -1.09936 -1.09936 l -0.429953,-0.35683 -0.429954,-0.35683 -0.760671,0.0798 -0.760672,0.0798 v -0.65738 -0.65739 l 1.590318,-1.52755 1.590315,-1.52756 0.277918,-1.03211 0.277919,-1.03211 0.348482,0.13373 0.348483,0.13372 0.27377,-0.27377 0.273772,-0.27377 0.255699,0.15803 0.255701,0.15803 -0.336794,1.61392 -0.33679,1.61391 -0.733497,0.76561 -0.733496,0.7656 -0.120822,1.45693 -0.12082,1.45692 0.495443,0.15575 0.495441,0.15574 0.426878,0.22494 0.426879,0.22494 1.02833,-0.13212 1.028329,-0.13211 0.529167,0.43365 0.529167,0.43365 -0.396875,-0.11439 -0.396875,-0.11439 -0.439815,0.38236 -0.439814,0.38235 -0.353936,0.0536 -0.353935,0.0536 -0.264584,0.16484 -0.264583,0.16483 z m 18.944241,-0.18776 -0.502145,0.0472 -0.661458,-0.36343 -0.661458,-0.36343 -0.494372,-0.15053 -0.494371,-0.15053 0.19281,-2.84054 0.192807,-2.84055 0.84319,-0.82049 0.84319,-0.8205 0.3182673,-1.06228 0.3182699,-1.06229 0.00405,-0.76305 0.00405,-0.76305 0.194384,-0.29758 0.1943868,-0.29757 1.0544148,-0.56232 1.0544149,-0.56233 h 0.337775 0.3377751 l -0.1676797,1.12448 -0.1676771,1.12448 -1.1267837,1.19063 -1.1267837,1.19062 -0.1437984,0.66146 -0.1437984,0.66146 -0.4169516,1.85198 -0.4169482,1.85199 v 0.7254 0.7254 l 0.8489334,0.81129 0.8489316,0.81128 -0.2806409,0.44779 -0.2806436,0.44779 -0.5021448,0.0472 z m 23.846796,0.0544 -0.271857,-0.0307 -0.419248,-0.11257 -0.419248,-0.11257 -0.448043,-0.93955 -0.448043,-0.93956 0.166764,-0.88893 0.166764,-0.88893 -0.743145,0.0535 -0.743144,0.0535 -0.36958,-0.75447 -0.369583,-0.75448 1.586095,-1.49448 1.586095,-1.49449 0.182033,-0.85989 0.182036,-0.8599 h 0.378979 0.378981 l -0.15726,1.12448 -0.157258,1.12448 -0.242742,0.76708 -0.242745,0.76709 v 2.03472 2.03471 l 0.676579,0.30827 0.676577,0.30827 0.534723,-0.28617 0.53472,-0.28618 0.376201,0.14436 0.3762,0.14437 v 0.40013 0.40014 l -0.727604,0.17681 -0.727604,0.17681 -0.521893,0.3574 -0.521891,0.3574 z m -180.263982,-0.23841 -0.71829,-0.005 -0.58387,-1.38455 -0.58387,-1.38454 -0.17729,-1.0141 -0.1773,-1.0141 0.62887,-0.83798 0.62887,-0.83798 v -1.63963 -1.63963 l 0.26459,-0.25801 0.26458,-0.25801 0.99219,-0.18232 0.99218,-0.18233 v 0.65479 0.65479 l -0.27526,1.42518 -0.27525,1.42517 -0.23692,1.84791 -0.23692,1.8479 0.40024,0.84344 0.40024,0.84344 -0.29425,0.5498 -0.29424,0.5498 -0.7183,-0.005 z m 63.68145,-0.21221 -1.04771,0.0999 -0.39514,-0.60305 -0.39513,-0.60305 h -0.39078 -0.39078 v -0.52537 -0.52537 l -0.30898,-1.15526 -0.30898,-1.15525 0.44127,-1.10286 0.44128,-1.10285 v -1.15696 -1.15697 l -0.39688,-0.15229 -0.39687,-0.1523 v -0.53747 -0.53747 h 1.4269 1.4269 l 0.1606,0.41852 0.1606,0.41851 v 2.05891 2.05892 l -0.2647,1.39573 -0.26469,1.39573 0.7754,1.26018 0.7754,1.26019 z m 51.223174,0.21672 h -0.132292 v -0.13229 -0.13229 h 0.132292 0.132292 v 0.13229 0.13229 z m 55.4728361,-0.001 -1.7624187,-10e-4 -0.8598959,-0.52429 -0.85989583,-0.52429 v -0.55045 -0.55045 l 0.25432283,-0.4752 0.2543201,-0.47521 0.099938,-0.90688 0.099936,-0.90687 0.4476036,-0.68313 0.4476009,-0.68313 0.078565,-1.37937 0.078565,-1.37938 0.9159425,-0.83911 0.9159425,-0.83912 0.459531,0.0885 0.4595336,0.0885 0.5129954,-0.61605 0.5129953,-0.61605 0.4015237,-0.82408 0.4015211,-0.82409 0.6660383,0.12733 0.6660409,0.12732 v 0.18184 0.18183 l -0.9260416,0.89756 -0.9260417,0.89755 v 0.31258 0.31257 l -0.4162134,0.34543 -0.4162134,0.34542 -0.5489496,1.07604 -0.5489522,1.07603 0.054599,0.0797 0.054599,0.0797 -0.7621534,0.86805 -0.7621535,0.86804 -0.059978,1.48254 -0.059978,1.48254 0.3411326,0.54624 0.3411326,0.54625 1.193128,-0.008 1.1931253,-0.008 0.5135906,-0.38846 0.5135907,-0.38846 h 0.4763558 0.4763532 l 0.3304699,-0.52917 0.3304699,-0.52916 H 9.328855 9.6537819 l -0.150241,0.39152 -0.150241,0.39152 -0.9659329,0.59547 -0.9659356,0.59547 -0.6188313,0.7328 -0.618834,0.7328 -1.762416,-0.001 z M -117.72372,237.20418 h -0.47458 l 0.13887,-2.92984 0.13887,-2.92984 0.73015,-0.76211 0.73014,-0.76211 v -1.46742 -1.46743 h 0.73432 0.73431 l 0.41851,-0.1606 0.41852,-0.1606 v 1.43211 1.43212 l -0.68421,0.9113 -0.68421,0.9113 0.15452,1.85208 0.15452,1.85208 -1.01758,1.12448 -1.01758,1.12448 z M -6.4841956,236.9396 h -1.8370815 v -0.40192 -0.40191 l 0.6614583,0.16601 0.6614584,0.16602 v -0.32271 -0.32272 l 0.8893995,0.16685 0.8893995,0.16686 0.3336237,-0.40199 0.3336211,-0.40199 h 0.3644768 0.3644794 v 0.20571 0.20571 l -0.4118769,0.58804 -0.4118795,0.58804 z M -130.34735,236.67501 h -0.22804 l -0.15872,-0.41362 -0.15872,-0.41363 0.46412,-1.71462 0.46413,-1.71462 -0.1428,-0.1428 -0.14279,-0.14279 0.6113,-1.23469 0.6113,-1.23468 0.17936,-0.85034 0.17936,-0.85034 0.63796,-0.60487 0.63797,-0.60487 0.005,-0.21734 0.005,-0.21733 0.40586,-0.40586 0.40586,-0.40585 -0.1538,-0.48458 -0.1538,-0.48457 0.74013,0.0974 0.74013,0.0973 0.21043,0.0182 0.21042,0.0182 -0.17652,0.99219 -0.17652,0.99219 -0.76151,1.16984 -0.76151,1.16984 v 0.61074 0.61075 l -0.4168,1.12983 -0.4168,1.12983 -0.25362,0.47379 -0.25362,0.47378 0.1429,0.23122 0.1429,0.23122 -0.2107,0.0888 -0.21071,0.0887 -0.89413,1.25677 -0.89412,1.25677 h -0.22804 z m 81.428263,-0.54394 -0.677191,0.63619 v -0.32961 -0.3296 l 0.399238,-0.39924 0.399238,-0.39923 0.277953,0.0926 0.277955,0.0926 z m -90.399253,0.27936 h -0.23627 v -0.0999 -0.0999 l 0.40293,-0.3344 0.40293,-0.33441 -0.16666,0.4343 -0.16665,0.4343 z m 103.62375,0 h -0.143354 v -0.26458 -0.26459 h 0.264583 0.264584 v -0.42061 -0.4206 l 0.595312,-0.49664 0.595313,-0.49662 0.204536,-0.009 0.204538,-0.009 -0.455728,0.72761 -0.455729,0.7276 -0.46535,0.46302 -0.465349,0.46302 h -0.143356 z m -188.40667,-1.32252 -0.36585,0.66106 -0.009,-0.57969 -0.009,-0.5797 0.28218,-0.1744 0.28219,-0.1744 0.093,0.093 0.093,0.093 z m 242.124924,0.52877 h -0.151191 v -0.15119 -0.15119 l 0.409475,-0.40948 0.409474,-0.40947 0.151191,0.15119 0.151191,0.15119 -0.409475,0.40948 -0.409474,0.40947 z M -98.94107,235.3521 h -0.132292 v -0.13229 -0.1323 h 0.132292 0.132292 v 0.1323 0.13229 z m -60.94051,-1.10379 -0.61011,0.0868 0.43689,-0.84484 0.43689,-0.84485 0.26688,0.26688 0.26688,0.26688 -0.0937,0.49113 -0.0937,0.49112 z m 45.44677,0.0454 h -0.2802 l 0.16352,-0.26458 0.16352,-0.26458 h 0.11668 0.11668 v 0.26458 0.26458 z m 133.730842,0 h -0.136676 l 0.565201,-0.79375 0.5652,-0.79375 h 0.246565 0.246568 v 0.1681 0.1681 l -0.67509,0.62565 -0.675089,0.62565 z m -154.700512,-0.26458 h -0.18138 v -0.58689 -0.58689 l 0.70261,-0.60373 0.70261,-0.60374 0.42187,0.0209 0.42187,0.0209 -0.33073,0.13346 -0.33073,0.13345 v 0.461 0.46099 l -0.61237,0.57529 -0.61236,0.57529 h -0.18139 z m 113.31223,-0.47087 -0.806392,0.11835 0.07879,-0.54472 0.07878,-0.54472 0.567095,-0.28154 0.567094,-0.28153 0.425093,-0.3528 0.425093,-0.3528 v 0.38518 0.38517 l -0.198437,0.19844 -0.198438,0.19844 -0.03307,0.24253 -0.03307,0.24254 -0.03307,0.23455 -0.03307,0.23455 z m -105.34445,-0.0583 h -0.21166 v -0.23627 -0.23628 l 0.42432,-0.16283 0.42433,-0.16283 -0.14303,-0.37274 -0.14304,-0.37275 0.31402,-0.11758 0.31402,-0.11757 0.51161,0.18233 0.5116,0.18232 -0.34275,0.21183 -0.34275,0.21184 -0.23094,-0.36463 -0.23095,-0.36463 -0.004,0.5424 -0.004,0.54239 -0.3175,0.3175 -0.3175,0.3175 h -0.21167 z m 13.80195,0 h -0.25528 v -0.33323 -0.33323 l 0.52917,-0.33047 0.52916,-0.33047 v 0.15193 0.15193 l -0.27389,0.51177 -0.27389,0.51177 z m 18.397847,-0.79375 h -0.132292 v -0.13229 -0.13229 h 0.132292 0.132291 v 0.13229 0.13229 z m -17.682987,-0.88194 -0.17639,0.17639 v -0.35278 -0.35278 l 0.17639,0.17639 0.17639,0.17639 z m 134.33301,-0.17639 h -0.396875 l 0.16352,-0.26458 0.16352,-0.26459 h 0.396875 0.396875 l -0.16352,0.26459 -0.16352,0.26458 z m -41.497786,-0.6289 -0.439494,0.16865 0.816378,-1.2873 0.816377,-1.28729 0.678246,-0.35537 0.678249,-0.35537 0.134678,0.13468 0.134681,0.13468 -0.452197,0.74592 -0.452197,0.74593 -0.737613,0.59341 -0.737611,0.59341 z m -153.424804,-0.51763 -0.17639,0.17639 v -0.35278 -0.35277 l 0.17639,0.17638 0.17638,0.17639 z m -8.35456,-0.17639 h -0.25727 l -0.14499,-0.2346 -0.145,-0.23461 0.40036,-0.33226 0.40035,-0.33227 0.15859,0.15859 0.15858,0.15858 -0.15667,0.40829 -0.15667,0.40828 z m 49.51468,0 h -0.38271 l 0.1606,-0.41851 0.1606,-0.41851 v -0.37524 -0.37524 h 0.52916 0.52917 v 0.11985 0.11984 l -0.30705,0.67391 -0.30705,0.6739 z m 9.87598,-0.79375 h -0.11668 l -0.15222,-0.2463 -0.15222,-0.2463 0.2689,-0.16619 0.26889,-0.16618 v 0.41248 0.41249 z m 76.757649,-0.0882 -0.17639,0.17639 v -0.35278 -0.35278 l 0.17639,0.17639 0.176387,0.17639 z m -126.999999,-0.26458 -0.17639,0.17638 v -0.35277 -0.35278 l 0.17639,0.17639 0.17638,0.17639 z m 63.1757,0.0882 h -0.41249 l 0.16352,-0.26458 0.16352,-0.26459 h 0.24897 0.24897 v 0.26459 0.26458 z m 134.035379,0 h -0.256278 l 0.152294,-0.39687 0.152297,-0.39688 h 0.103984 0.103984 v 0.39688 0.39687 z M -181.49107,229.0021 h -0.13229 v -0.13229 -0.1323 h 0.13229 0.13229 v 0.1323 0.13229 z m 136.418059,-0.14796 -0.216125,0.13357 -0.169196,-0.16919 -0.169196,-0.1692 v -0.35278 -0.35278 h 0.236276 0.236276 l 0.149045,0.3884 0.149042,0.38841 z m -135.861329,-0.18828 -0.15986,0.15985 0.0209,-0.50712 0.0209,-0.50712 0.13896,0.34727 0.13896,0.34726 -0.15985,0.15986 z m 26.47487,-0.0165 -0.17639,0.17639 v -0.35278 -0.35278 l 0.17639,0.17639 0.17638,0.17639 z m 45.93295,-0.0575 -0.33643,0.1291 v -0.21528 -0.21527 l 0.48386,-0.43788 0.48385,-0.43788 h 0.17985 0.17985 l -0.32728,0.52406 -0.32728,0.52405 z m -21.0906,-0.91263 h -0.38126 l -0.16352,-0.26458 -0.16352,-0.26459 h 0.54478 0.54478 v 0.26459 0.26458 z m -6.83833,-0.9521 -0.37255,0.5031 -0.187,-0.30257 -0.187,-0.30257 0.24306,-0.43433 0.24307,-0.43434 -0.19825,-0.82453 -0.19826,-0.82453 -0.19224,-0.46603 -0.19224,-0.46602 0.49248,0.17424 0.49248,0.17423 -0.26459,-0.26755 -0.26458,-0.26755 -1.24164,-0.30056 -1.24164,-0.30056 h -1.43795 -1.43794 l -0.29068,-0.35025 -0.29068,-0.35025 0.3112,-0.31121 0.3112,-0.3112 h 0.21167 0.21167 v 0.39687 0.39688 h 0.26458 0.26458 v -0.36793 -0.36793 l 0.99219,-0.12021 0.99219,-0.12021 0.61491,0.27496 0.61492,0.27495 0.50597,-0.31598 0.50598,-0.31599 h 0.23923 0.23922 l 0.18092,0.99219 0.18092,0.99219 0.12867,1.71979 0.12868,1.71979 z m 123.900839,-0.13117 -0.396875,-0.0168 -0.330729,-0.13345 -0.330729,-0.13346 v -0.62379 -0.6238 l 0.249296,-0.15407 0.249296,-0.15407 0.185044,-1.23395 0.185042,-1.23395 0.594825,-0.59482 0.594826,-0.59483 0.558337,0.14601 0.558334,0.14601 -0.0016,0.69674 -0.0016,0.69675 -0.358008,0.68607 -0.358007,0.68608 -0.193815,1.03311 -0.193813,1.03311 -0.306443,0.19499 -0.306446,0.19499 -0.396875,-0.0168 z m -10.686253,-0.56408 -0.325454,0.33703 -0.160073,-0.16007 -0.160072,-0.16007 0.115379,-0.93025 0.11538,-0.93025 -0.556448,-0.90035 -0.556451,-0.90036 h -0.520726 -0.520727 l -0.780611,-0.40367 -0.78061,-0.40366 v -0.2034 -0.2034 l 1.521354,-0.0431 1.521354,-0.043 0.463021,0.13878 0.463021,0.13878 v 0.79332 0.79331 l 0.315828,0.57792 0.315827,0.57792 -0.07227,0.79375 -0.07227,0.79375 z m 43.120588,-0.13081 -0.357169,0.4708 -0.163346,-0.42568 -0.163348,-0.42568 0.161782,-0.64458 0.161779,-0.64458 -1.088056,-0.95375 -1.088059,-0.95375 v -0.37006 -0.37006 l -0.632595,0.15877 -0.632593,0.15877 -0.195053,-0.3156 -0.195054,-0.3156 0.362429,-0.22399 0.362427,-0.224 0.658926,0.16538 0.658926,0.16538 0.269314,-0.0109 0.269314,-0.0109 0.668991,-0.17947 0.668991,-0.17948 0.323197,1.20839 0.323196,1.2084 -0.0084,1.12068 -0.0084,1.12068 -0.357169,0.4708 z m -56.090625,0.19066 h -0.389564 l -0.147514,-0.23868 -0.147513,-0.23868 0.859505,-0.50402 0.859501,-0.50402 0.454546,-0.17178 0.454549,-0.17179 0.137404,0.22232 0.137401,0.22232 -0.771375,0.31952 -0.771377,0.31951 -0.142999,0.37265 -0.142999,0.37265 z M -147.7567,224.76876 h -0.35277 l 0.17638,-0.17639 0.17639,-0.17638 0.17639,0.17638 0.17639,0.17639 z m -59.43078,-1.05833 h -0.38166 l -0.11142,-0.33073 -0.11141,-0.33073 -0.0787,-0.51957 -0.0787,-0.51958 0.52916,-0.0605 0.52917,-0.0605 -0.46626,0.13713 -0.46626,0.13712 0.15908,0.25741 0.15909,0.2574 0.37332,-0.30983 0.37332,-0.30982 v -0.26917 -0.26916 l 0.46302,-0.35148 0.46302,-0.35149 0.19844,-0.008 0.19844,-0.008 v 0.64116 0.64116 l -0.68498,0.81405 -0.68498,0.81405 z m 178.676108,-1.59155 -0.05053,-0.004 -0.396875,-0.25648 -0.396875,-0.25648 0.610928,-0.004 0.610925,-0.004 -0.16352,0.26459 -0.16352,0.26458 -0.05053,-0.004 z m 42.184262,-0.004 -0.430625,-0.008 0.51359,-0.38846 0.513591,-0.38846 h 0.246409 0.246412 l -0.329377,0.39688 -0.329377,0.39687 -0.430623,-0.008 z m -198.40511,-0.97938 -0.19843,0.10176 -0.99511,-0.17726 -0.99511,-0.17726 -0.17347,-0.17347 -0.17347,-0.17347 h 1.36702 1.36701 v 0.24897 0.24897 z m -19.46892,-0.68789 -0.17639,0.17638 v -0.35277 -0.35278 l 0.17639,0.17639 0.17639,0.17639 z m 17.50016,-0.18044 -0.0818,-0.004 -0.39687,-0.25648 -0.39688,-0.25647 0.31512,-0.004 0.31511,-0.004 0.16352,0.26458 0.16352,0.26459 -0.0818,-0.004 z m 136.076349,-4.11552 -0.234606,0.14499 -0.326959,-0.39396 -0.326959,-0.39396 h -0.576143 -0.576146 l -0.3175,-0.3175 -0.3175,-0.3175 0.01524,-1.46844 0.01524,-1.46844 0.18406,-1.03607 0.18406,-1.03608 0.890764,-0.49763 0.890768,-0.49764 0.143026,0.14303 0.143026,0.14302 -0.439349,0.48548 -0.439351,0.48548 v 1.36823 1.36822 h 0.332454 0.332454 l 0.329004,1.05417 0.329004,1.05417 v 0.51771 0.51773 l -0.234603,0.14499 z m 6.833571,-2.23043 h -0.280196 l 0.16352,-0.26459 0.163521,-0.26458 h 0.116678 0.116676 v 0.26458 0.26459 z m -153.7073,-2.64584 h -0.26459 v -0.26458 -0.26458 h 0.26459 0.26458 v 0.26458 0.26458 z m 129.35002,-2.38125 h -0.264583 l 0.16352,-0.26458 0.163521,-0.26458 h 0.264583 0.264583 l -0.16352,0.26458 -0.163521,0.26458 z m 41.15189,-0.0112 -0.551217,0.0112 -0.176387,-0.17639 -0.17639,-0.17638 v -1.13732 -1.13733 l -0.79375,-0.90403 -0.79375,-0.90403 v -2.655 -2.655 l -0.249682,-0.0882 -0.249682,-0.0882 -0.273045,-1.70495 -0.273047,-1.70495 -1.283105,-1.33776 -1.283107,-1.33776 -0.443125,-0.71829 -0.443124,-0.7183 v -0.36517 -0.36518 l -0.519205,-0.46988 -0.519208,-0.46987 -0.290324,-0.87969 -0.290322,-0.87969 -0.31495,0.10934 -0.314949,0.10934 -0.727604,-0.96005 -0.727605,-0.96006 v -0.58317 -0.58317 l -0.534439,-0.67943 -0.534437,-0.67943 -0.579195,-0.0839 -0.579194,-0.0839 -0.143139,-0.58584 -0.143137,-0.58585 -0.992188,-1.04425 -0.992187,-1.04426 v -0.29782 -0.29781 l -1.321861,-1.64396 -1.321859,-1.64396 -0.9271,-0.62942 -0.927097,-0.62942 v -0.35356 -0.35357 l -0.738074,-0.8691 -0.738073,-0.8691 -1.518452,-2.31258 -1.518449,-2.31258 -0.203348,0.0636 -0.203351,0.0636 -0.786469,-0.66145 -0.786471,-0.66146 -0.611815,-0.99239 -0.611817,-0.99238 -0.566338,-0.39668 -0.566335,-0.39668 h -0.186333 -0.186336 l -0.416253,0.8344 -0.416253,0.8344 v 0.71604 0.71604 l 0.637321,0.47861 0.637317,0.4786 0.142373,0.71185 0.142369,0.71186 0.952418,1.06093 0.952416,1.06093 0.99528,0.44881 0.995278,0.44881 0.362699,1.63634 0.362699,1.63634 0.663469,1.32292 0.663469,1.32291 0.451212,0.52917 0.451216,0.52917 0.183956,0.86934 0.183955,0.86935 -1.081432,0.98853 -1.081431,0.98852 v 0.59783 0.59783 l -0.376201,0.14436 -0.3762,0.14436 -0.547518,-0.29302 -0.547521,-0.29303 -1.435137,0.41721 -1.435135,0.4172 -0.463566,0.71534 -0.463565,0.71534 -0.683308,0.59499 -0.683308,0.59499 -0.946068,2.7e-4 -0.946065,2.6e-4 -0.629605,0.67019 -0.629605,0.67018 -0.144415,2.39407 -0.144415,2.39407 -0.513294,0.37533 -0.513297,0.37533 -0.412451,0.002 -0.412452,0.002 -0.953833,0.26496 -0.953831,0.26495 -0.56787,0.49251 -0.56787,0.49251 0.174051,0.87025 0.174048,0.87025 -0.55789,-0.14589 -0.557892,-0.14589 -0.09635,0.28905 -0.09635,0.28906 -1.966854,-0.7335 -1.966855,-0.73351 -0.595312,-0.14365 -0.595313,-0.14365 v -0.22133 -0.22132 l -0.959643,-0.45538 -0.959647,-0.45539 -1.090874,-0.0974 -1.090877,-0.0974 -1.322917,0.003 -1.322917,0.003 -0.46283,-0.35159 -0.46283,-0.35159 -0.268706,-1.41688 -0.268708,-1.41689 -0.238376,-0.23837 -0.238377,-0.23838 -0.608647,-0.30344 -0.608645,-0.30345 -0.246952,-0.86106 -0.246949,-0.86106 0.136065,-0.13607 0.136065,-0.13606 0.611272,-0.11772 0.611272,-0.11772 1.078174,-1.04887 1.078172,-1.04886 0.441378,-0.40987 0.441378,-0.40988 1.384462,0.26256 1.384461,0.26256 0.33977,0.28198 0.33977,0.28199 1.445226,0.0872 1.445225,0.0872 0.970725,0.35102 0.970722,0.35101 0.776255,-0.88908 0.776253,-0.88908 v -0.22873 -0.22873 h -0.680357 -0.680358 l -0.377975,-0.37798 -0.377976,-0.37797 v -0.28348 -0.28349 l -0.198438,0.008 -0.198437,0.008 -0.513591,0.38846 -0.513591,0.38846 h -1.345766 -1.345768 l -0.588037,-0.41188 -0.588039,-0.41188 -0.03301,0.34574 -0.03301,0.34573 -0.213294,-1.45521 -0.213297,-1.45521 0.246304,-0.25135 0.246303,-0.25136 v -1.21708 -1.21708 l -0.3175,-0.3175 -0.3175,-0.3175 h 0.3175 0.3175 v -0.3753 -0.37529 l 0.992188,-0.59355 0.992187,-0.59355 0.613071,-0.54917 0.613072,-0.54917 0.31297,-0.0292 0.31297,-0.0292 0.422537,-0.0403 0.422537,-0.0403 0.569651,-0.49406 0.56965,-0.49405 v -0.96116 -0.96115 h 0.236287 0.236283 l 0.387212,-0.97081 0.387213,-0.97082 -0.220311,-0.94741 -0.22031,-0.94742 -0.01474,-2.91041 -0.01474,-2.91042 -0.322437,-0.4233 -0.32244,-0.4233 -0.925917,-0.20351 -0.925917,-0.20351 -5.159376,-0.11267 -5.159375,-0.11266 -0.926041,0.026 -0.926042,0.026 -6.612006,-0.006 -6.612004,-0.006 -0.09077,-0.27232 -0.09077,-0.27231 h -0.522732 -0.522732 l 0.122667,0.19843 0.122668,0.19844 -12.740905,-0.099 -12.74091,-0.099 -5.02708,-0.0616 -5.02709,-0.0616 -3.04271,-0.14969 -3.04271,-0.14969 -4.29798,0.2216 -4.29799,0.22159 -0.89262,0.55167 -0.89262,0.55167 h -1.18144 -1.18144 l -0.18216,-0.18216 -0.18217,-0.18216 -2.69157,0.0661 -2.69157,0.0661 -0.20468,0.12651 -0.20469,0.1265 -1.13287,-0.50363 -1.13286,-0.50363 -5.88646,0.13085 -5.88646,0.13084 -1.65087,-0.32478 -1.65087,-0.32479 -1.09999,-0.64464 -1.09999,-0.64464 -0.16413,-0.87486 -0.16413,-0.87487 -0.61089,-0.57391 -0.61089,-0.5739 -0.16739,0.1674 -0.1674,0.1674 -0.47443,-0.20827 -0.47444,-0.20828 -0.26458,-0.0229 -0.26458,-0.0229 -0.0849,-1.03917 -0.0849,-1.03918 0.94482,-0.86556 0.94481,-0.86557 v -0.35527 -0.35528 l 1.17867,-1.15677 1.17866,-1.15677 1.26873,0.0397 1.26873,0.0397 0.96862,0.15518 0.96863,0.15517 0.42481,0.46941 0.42481,0.46941 0.0683,2.93536 0.0683,2.93537 0.12577,0.0845 0.12578,0.0845 0.60248,0.50769 0.60248,0.5077 2.70089,-0.0667 2.7009,-0.0667 0.2685,-0.20811 0.2685,-0.2081 0.84964,-0.16086 0.84963,-0.16086 0.15817,0.25592 0.15817,0.25592 0.71199,-2.7e-4 0.71198,-2.6e-4 0.72761,-0.62577 0.7276,-0.62578 v -0.31777 -0.31778 l 0.50586,0.16055 0.50585,0.16055 0.16489,-0.75075 0.1649,-0.75076 0.66287,-0.71488 0.66288,-0.71488 h 0.24884 0.24883 l 0.1616,-0.64385 0.16159,-0.64384 0.37476,0.14381 0.37475,0.1438 0.99005,-0.47593 0.99004,-0.47594 2.15509,-0.14851 2.15509,-0.1485 0.49074,-0.41186 0.49075,-0.41186 0.74005,-0.31575 0.74006,-0.31574 h 0.7295 0.7295 l 1.26651,-0.8032 1.26651,-0.8032 1.49727,-1.10844 1.49726,-1.10844 0.26459,-0.0324 0.26458,-0.0324 0.46806,-0.0403 0.46806,-0.0403 -0.17591,-0.70092 -0.17593,-0.70092 0.32276,0.19947 0.32276,0.19948 0.57573,-0.54052 0.57572,-0.54051 1.45521,0.0949 1.45521,0.0949 0.59531,0.021 0.59531,0.021 v 0.26459 0.26458 h -0.3793 -0.3793 l -0.0837,0.72761 -0.0837,0.7276 -0.31732,-0.0617 -0.31733,-0.0617 -1.68963,0.52188 -1.68963,0.52187 -0.4758,0.52575 -0.4758,0.52576 -0.22922,-0.14167 -0.22923,-0.14167 v 0.21561 0.21561 l -0.79375,0.35135 -0.79375,0.35135 v 1.80232 1.80233 l 1.33123,0.85424 1.33121,0.85424 0.26852,0.50173 0.26851,0.50172 -0.15453,0.25004 -0.15453,0.25004 0.54455,1.06741 0.54455,1.06741 h 0.48278 0.48278 l 0.49958,0.55203 0.49958,0.55203 1.98883,-0.11882 1.98882,-0.11881 1.19062,-0.56596 1.19063,-0.56597 0.44981,-0.79171 0.4498,-0.79172 -0.27641,-0.79293 -0.27643,-0.79294 -0.83484,0.0637 -0.83483,0.0636 -0.0832,-1.01039 -0.0832,-1.0104 2.33216,0.18847 2.33216,0.18846 0.26458,-0.0365 0.26459,-0.0365 1.76515,-0.33267 1.76516,-0.33267 0.66386,-0.62366 0.66385,-0.62366 0.16325,-0.96334 0.16325,-0.96334 0.87615,-0.57328 0.87615,-0.57328 1.15722,-0.0882 1.15723,-0.0882 0.0274,0.26458 0.0274,0.26458 0.1925,0.43331 0.19249,0.43331 -0.12922,2.20949 -0.12922,2.20949 0.262,0.31569 0.262,0.31569 0.25352,1.79017 0.25352,1.79018 0.40282,0.44511 0.40282,0.44512 1.50908,0.17356 1.50908,0.17357 1.65364,0.15358 1.65365,0.15359 v -0.27447 -0.27446 l 1.78594,-0.0146 1.78593,-0.0146 0.52917,-0.003 0.52917,-0.003 2.51354,0.21698 2.513542,0.21699 0.189632,-0.28626 0.189632,-0.28625 0.471827,-0.006 0.471826,-0.006 -0.07775,-0.45675 -0.07774,-0.45674 h 0.27618 0.276183 v -0.35347 -0.35347 l 0.992187,-0.94116 0.992188,-0.94116 0.374123,-0.49131 0.374124,-0.49131 0.676127,-0.73654 0.676126,-0.73654 -0.322646,-0.51664 -0.322646,-0.51664 v -0.64703 -0.64703 l -0.787135,-0.56049 -0.787136,-0.56049 -0.290266,-1.11117 -0.290269,-1.11118 -0.340956,-0.2668 -0.340958,-0.26681 -0.675446,-1.32069 -0.675447,-1.3207 -1.015048,-0.9572 -1.015047,-0.95721 -0.591389,-0.14147 -0.591386,-0.14148 -0.731531,1.15517 -0.731531,1.15517 -0.5543,0.01 -0.55431,0.01 -0.49541,-0.54742 -0.49541,-0.54742 -0.10555,-2.62794 -0.10555,-2.62793 -0.8794,-0.96008 -0.8794,-0.96008 -0.47887,0.19414 -0.47888,0.19414 -1.98438,0.26701 -1.98437,0.267 -1.05833,-0.0413 -1.05834,-0.0413 -1.05833,-0.14492 -1.05833,-0.14492 -0.79375,0.006 -0.79375,0.006 -1.6332,0.18022 -1.63319,0.18022 -0.74485,0.77745 -0.74485,0.77746 -0.003,0.44852 -0.003,0.44852 -0.89088,0.28843 -0.89089,0.28842 -1.02734,1.11261 -1.02735,1.11261 v 0.14453 0.14453 l -0.59531,0.51143 -0.59531,0.51144 -0.92806,0.49582 -0.92806,0.49583 -0.79173,0.0935 -0.79175,0.0935 -0.0832,-0.58481 -0.0832,-0.58481 0.52908,-1.19608 0.52909,-1.19609 -0.2555,-0.1579 -0.25549,-0.1579 -1.94701,0.14045 -1.94702,0.14046 -0.69424,0.17424 -0.69423,0.17424 -0.36645,-0.30412 -0.36644,-0.30412 -0.62231,-0.12073 -0.62231,-0.12073 -2.99113,-0.053 -2.99113,-0.053 0.17507,-1.07307 0.17507,-1.07307 0.51777,-0.93541 0.51778,-0.93543 -0.083,-1.27491 -0.083,-1.27491 -1.13158,-0.63394 -1.13158,-0.63394 h -0.79232 -0.79232 l -0.29725,-0.6524 -0.29726,-0.65241 0.28976,-1.44285 0.28977,-1.44286 -0.15479,-0.95387 -0.15479,-0.95387 -0.29507,-0.18808 -0.29507,-0.18808 -1.29528,-0.4608 -1.29528,-0.4608 -0.49066,-0.44404 -0.49065,-0.44404 v -1.56388 -1.56389 l -0.26862,-0.50192 -0.26862,-0.50192 -0.39284,0.15075 -0.39284,0.15075 v -0.65738 -0.65736 l -0.38845,-0.32239 -0.38846,-0.32239 -0.66988,-1.19854 -0.66988,-1.19854 v -0.3003 -0.3003 l -0.92227,-1.05544 -0.92229,-1.05544 0.12945,-0.35475 0.12944,-0.35474 -0.54841,-0.77018 -0.54841,-0.77017 -0.57698,0.13115 -0.57698,0.13114 -0.39798,-0.32914 -0.39798,-0.32914 -1.04545,-1.38906 -1.04545,-1.38907 -0.14408,-2.6e-4 -0.14406,-2.7e-4 -0.72761,-0.62577 -0.7276,-0.62577 v -1.45489 -1.45489 l -0.53607,-0.6815 -0.53607,-0.6815 -0.50305,-0.15966 -0.50305,-0.15967 -0.50205,-0.848161 -0.50205,-0.848164 -1.03852,-0.362384 -1.03852,-0.362384 -0.59531,-0.543631 -0.59531,-0.543634 v -0.838915 -0.838913 l 0.46302,-0.400636 0.46302,-0.400636 3.43958,-0.08685 3.43959,-0.08685 2.11666,0.0526 2.11667,0.0526 2.09872,0.280805 2.09873,0.280804 0.99218,0.506171 0.99217,0.506172 0.15328,0.248007 0.15328,0.24801 0.78914,0.173323 0.78914,0.173324 0.22534,0.402658 0.22534,0.402657 h 0.9676 0.96759 l 0.13682,0.221371 0.13681,0.221369 0.82914,0.413631 0.82915,0.413629 h 0.88539 0.88539 v 0.244231 0.244229 l 0.8141,0.814107 0.8141,0.8141 h 0.50882 0.50881 l 0.52917,0.52917 0.52916,0.52917 h 0.92605 0.92604 l 0.47956,0.47955 0.47955,0.47956 0.31438,-0.10479 0.31437,-0.10479 -0.17,0.44301 -0.17,0.44302 0.66721,0.61867 0.66722,0.61868 1.0901,0.29353 1.09011,0.29354 v 0.24239 0.2424 l 0.93109,0.17467 0.93109,0.17468 0.59026,0.75938 0.59027,0.75939 0.72338,0.86386 0.72337,0.86387 0.004,0.33073 0.004,0.33073 h 1.01732 1.01733 l 0.43788,0.48385 0.43788,0.48386 v 0.40979 0.40979 l 0.38418,0.31884 0.38418,0.31884 0.47572,-0.14987 0.47572,-0.14987 0.59531,0.87199 0.59531,0.87198 v 0.41097 0.41097 l 0.48413,0.63099 0.48413,0.63099 0.16726,0.45842 0.16726,0.45842 0.80382,-0.16076 0.8038,-0.16088 v 0.29766 0.29765 h -0.26458 -0.26458 v 0.26459 0.26458 l 1.05833,1.05833 1.05833,1.05834 h 0.35587 0.35587 l 0.50046,-0.553 0.50045,-0.553 -0.0713,-1.46141 -0.0713,-1.46142 -0.38814,-0.75057 -0.38814,-0.75058 v -0.41001 -0.41001 l -0.33072,-0.0313 -0.33073,-0.0313 -0.19265,0.0294 -0.19264,0.0294 -0.38009,-0.72567 -0.3801,-0.72567 -0.93965,-0.9031 -0.93964,-0.90311 -0.93501,0.0352 -0.93502,0.0352 v -0.3427 -0.34269 l -0.62143,-0.58381 -0.62144,-0.58381 -0.0225,-0.79239 -0.0225,-0.79239 -0.67903,-0.80698 -0.67903,-0.80698 -0.10874,-0.57492 -0.10875,-0.57492 -0.31645,-2.11667 -0.31646,-2.11666 0.0377,-0.8751 0.0377,-0.875093 0.33245,-1.299054 0.33246,-1.299054 -0.19268,-1.926896 -0.19267,-1.926895 0.26575,-1.5875 0.26576,-1.5875 0.66579,-0.972436 0.66577,-0.972435 0.33636,-0.129073 0.33636,-0.129073 0.82769,-1.466576 0.82768,-1.466576 0.55839,-0.29884 0.55839,-0.29884 -0.1304,-0.49864 -0.1304,-0.49864 0.56106,0.05827 0.56106,0.05827 0.007,-0.496931 0.007,-0.496931 0.83609,-0.449229 0.83609,-0.44923 0.67596,-0.442902 0.6759,-0.442902 h 0.38557 0.38557 l 0.94666,-1.105958 0.94665,-1.105958 v 0.332508 0.332508 l 0.72335,-0.880196 0.72335,-0.880196 0.24063,-0.171355 0.24064,-0.171355 -0.1544,-0.59045 -0.15441,-0.590449 0.40978,-1.024133 0.40977,-1.024133 h 0.63273 0.63273 v -0.264583 -0.264583 h 0.49677 0.49677 l 0.354,-0.426543 0.354,-0.426542 1.44731,-0.662015 1.44731,-0.662015 0.36666,-0.366651 0.36665,-0.366651 h 5.134374 5.134375 l 0.455189,0.727604 0.455186,0.727604 0.09446,0.12463 0.09447,0.124629 0.18405,-0.280032 0.184052,-0.280031 1.455208,-0.361651 1.455209,-0.361651 2.956014,0.01413 2.956018,0.01414 0.894406,0.424423 0.894405,0.424423 0.490064,0.541516 0.490066,0.541515 h 0.628754 0.628756 l 0.152294,0.396875 0.152297,0.396875 h 0.46846 0.468464 l 0.329377,0.396875 0.329377,0.396875 h 0.327469 0.327467 l 1.029198,0.929737 1.029197,0.929737 0.706718,0.653807 0.706715,0.653808 0.468681,1.062289 0.468683,1.062288 0.27981,0.03052 0.27981,0.03052 0.264583,0.03685 0.264583,0.03685 0.661459,0.36848 0.661458,0.368481 0.631391,0.622481 0.631394,0.622481 h 0.354179 0.354182 l -0.156387,0.781938 -0.156388,0.781939 0.427586,0.427585 0.427585,0.427586 0.02638,1.634747 0.02638,1.634747 0.18434,0.661458 0.184343,0.661458 1.139376,0.02835 1.139375,0.02835 0.233357,0.36852 0.233357,0.368521 0.004,1.545768 0.004,1.545767 -0.529166,0.672726 -0.529167,0.672727 v 0.518787 0.518787 l -0.591666,0.834594 -0.591667,0.834594 -0.717108,0.606933 -0.717108,0.606933 -0.165484,0.521388 -0.165481,0.521388 -0.245536,-0.151749 -0.245533,-0.151747 v 0.371483 0.371481 l -0.479425,0.433874 -0.479425,0.433874 0.06575,1.657661 0.06575,1.65765 0.246483,0.96098 0.246486,0.96098 0.182806,0.29579 0.182809,0.29579 h 0.381261 0.38126 l 0.03307,0.66146 0.03307,0.66146 0.0375,0.19844 0.0375,0.19843 0.51807,0.5961 0.518068,0.5961 0.03376,0.9914 0.03376,0.9914 0.424315,1.05834 0.424315,1.05833 0.01162,1.08383 0.01161,1.08383 -0.437594,0.90055 -0.437592,0.90054 -0.02543,0.0333 -0.02543,0.0333 -0.659384,0.20333 -0.659384,0.20333 0.351433,-0.42345 0.351433,-0.42345 -0.170686,-0.27618 -0.170682,-0.27617 h -0.507453 -0.507452 l -0.375425,0.59531 -0.375425,0.59531 -0.178581,0.59818 -0.178581,0.59818 0.826178,0.16524 0.82618,0.16524 0.647769,1.2783 0.647768,1.27831 v 0.40927 0.40926 l 0.30329,0.48564 0.303289,0.48564 -0.165248,0.6584 -0.165248,0.65841 -0.55412,0.70445 -0.55412,0.70444 h -0.395467 -0.395465 l -1.035769,0.8599 -1.03577,0.85989 -0.0048,0.28826 -0.0048,0.28826 -0.673907,0.30706 -0.67391,0.30705 h -0.481033 -0.481037 l -0.69714,0.54837 -0.69714,0.54837 v 1.24491 1.24491 l 0.529167,0.45309 0.529167,0.45309 v 0.75533 0.75533 l 0.483854,0.43788 0.483854,0.43789 h 0.429837 0.429834 l 0.475374,-0.71922 0.475372,-0.71921 1.653645,-1.59615 1.653646,-1.59616 0.004,-0.5289 0.004,-0.52891 0.221437,0.34924 0.221441,0.34924 0.634404,-0.74611 0.634392,-0.74612 h 0.264583 0.264583 l 0.553324,-0.39687 0.553323,-0.39688 0.295672,-0.55755 0.295672,-0.55755 -0.282504,-1.02314 -0.282506,-1.02315 0.303884,-1.3579 0.303885,-1.35791 1.455116,-0.73622 1.455115,-0.73622 0.265991,-0.49701 0.265991,-0.49701 -0.177697,-2.58003 -0.177696,-2.58004 1.086059,-0.92105 1.086061,-0.92105 0.902094,-0.7276 0.902092,-0.72761 h 0.6414 0.641403 l 0.579057,-0.53947 0.579056,-0.53947 v -0.38657 -0.38657 h 0.286631 0.286634 l -0.10713,-0.32139 -0.10713,-0.32139 0.680392,-0.54969 0.680395,-0.54969 1.624536,-0.84871 1.624534,-0.84871 h 0.309211 0.309208 l 1.029364,-0.82722 1.029364,-0.82722 0.443436,0.17016 0.443434,0.17016 1.620541,-0.44265 1.620539,-0.44264 0.299265,-0.2295 0.299265,-0.22949 1.524325,-0.39704 1.524326,-0.39704 0.06948,0.0726 0.06949,0.0726 0.07383,0.39687 0.07383,0.39688 -0.469482,1.05833 -0.469482,1.05833 -0.207495,2.24896 -0.207494,2.24896 -0.294682,0.73678 -0.294682,0.73678 0.06308,0.32155 0.06309,0.32155 h -2.835806 -2.835807 l -0.517401,0.52917 -0.517401,0.52917 -0.1467,0.96462 -0.146701,0.96462 0.33251,0.27596 0.332512,0.27596 1.14577,-0.51298 1.14577,-0.51297 h 0.530302 0.530305 l -0.189828,0.85989 -0.189831,0.8599 -0.112699,2.24896 -0.1127,2.24895 -0.322815,0.64593 -0.322813,0.64592 -0.992187,0.98697 -0.992188,0.98698 v -0.0851 -0.0851 l -0.859896,0.84749 -0.859896,0.8475 -0.540096,0.38282 -0.540097,0.38281 -0.716674,1.23774 -0.716674,1.23774 -0.0036,1.54039 -0.0036,1.54038 -1.525759,1.49725 -1.52576,1.49725 0.108506,0.32552 0.108505,0.32552 -0.314063,-0.1941 -0.314063,-0.19411 -0.977032,0.99855 -0.977032,0.99854 -0.270754,1.47384 -0.270753,1.47383 -0.802465,0.0791 -0.802466,0.0791 -0.697211,-0.26508 -0.697214,-0.26508 0.03942,-0.52328 0.03942,-0.52328 0.191378,0.11828 0.191376,0.11827 0.139081,-0.22503 0.139081,-0.22504 -0.56165,-1.1352 -0.561649,-1.13519 0.313878,-0.43002 0.31388,-0.43002 0.365469,-0.79375 0.365469,-0.79375 0.09223,-0.66146 0.09223,-0.66146 -0.857994,-0.0828 -0.857996,-0.0828 -0.308954,0.67809 -0.308954,0.67808 h -0.240517 -0.240514 l 0.0854,0.59531 0.0854,0.59531 0.594456,-0.063 0.594457,-0.063 v 0.49774 0.49774 l -0.455604,0.17483 -0.455607,0.17483 0.389461,0.25035 0.389448,0.25035 -0.396875,0.26028 -0.396875,0.26029 -0.261472,0.0915 -0.261471,0.0915 0.348858,0.76566 0.348856,0.76566 -0.299916,0.1 -0.299916,0.1 -0.647366,0.69815 -0.647364,0.69815 v 1.09479 1.09479 l 0.355946,0.29541 0.355947,0.2954 0.828744,0.16575 0.828746,0.16575 0.302914,0.36499 0.302913,0.36499 h 1.202701 1.2027 l 1.741467,-0.2961 1.741463,-0.29609 0.486918,-0.428 0.486918,-0.42799 0.336,0.45951 0.336002,0.4595 h 0.320458 0.320461 l 0.377976,0.37798 0.377976,0.37797 v 0.28349 0.28348 l -1.256771,0.004 -1.256771,0.005 -1.190625,1.12576 -1.190625,1.12576 -0.339646,0.65569 -0.339645,0.6557 0.07506,0.66146 0.07506,0.66145 h -0.503944 -0.503944 l -0.06718,-0.45773 -0.06718,-0.45773 -0.402164,-0.40216 -0.402164,-0.40217 h -0.413735 -0.413731 l -0.707234,-0.79375 -0.707237,-0.79375 h -0.709006 -0.709007 l -0.437883,0.48386 -0.437882,0.48385 v 0.30059 0.30058 l 0.511772,0.2739 0.511773,0.27389 h 0.811144 0.811144 l -0.0084,0.7276 -0.0084,0.72761 -0.605848,0.66146 -0.605846,0.66145 -0.510272,0.29161 -0.51027,0.2916 -0.0882,0.59616 -0.0882,0.59615 1.278824,-0.17108 1.278824,-0.17107 0.750032,0.80467 0.750031,0.80467 h 0.465733 0.46573 l 0.47889,-0.52916 0.478891,-0.52917 0.95118,7.9e-4 0.951179,8e-4 0.507008,0.75681 0.507011,0.75682 0.506396,0.31625 0.506397,0.31625 2.531771,0.005 2.531769,0.005 0.648298,-0.6483 0.648295,-0.6483 0.03169,-2.97208 0.03169,-2.97208 -0.980133,-0.89822 -0.980136,-0.89823 -0.466905,-1e-5 h -0.466908 l -0.750382,-0.94045 -0.750382,-0.94044 0.140205,-0.36537 0.140208,-0.36537 -0.315867,-0.15232 -0.315865,-0.15232 0.661458,0.16739 0.661459,0.16739 1.190006,0.13198 1.190005,0.13198 1.58812,1.32093 1.588119,1.32093 0.595312,1.32698 0.595313,1.32698 0.0016,0.56138 0.0016,0.56138 0.429852,0.79375 0.429856,0.79375 0.193058,0.98459 0.193059,0.98459 -0.458274,0.41474 -0.458275,0.41473 -0.287332,1.51109 -0.287332,1.5111 -0.118343,1.12448 -0.118343,1.12448 h 0.223793 0.223792 l 0.163521,-0.26459 0.16352,-0.26458 h 0.778137 0.778134 v 0.22211 0.22212 l 0.727605,0.35611 0.727604,0.35612 4.101042,0.093 4.101041,0.093 2.778125,-0.0383 2.778125,-0.0383 1.852084,0.023 1.852083,0.023 3.208002,0.0417 3.208001,0.0417 0.231582,-0.1411 0.231582,-0.14111 1.455208,-0.0892 1.455209,-0.0892 0.3423651,0.21698 0.3423629,0.21698 0.6498246,-0.42578 0.649822,-0.42578 v -0.56424 -0.56424 l -0.6929676,-0.90853 -0.6929649,-0.90852 -0.034639,-1.34774 -0.034637,-1.34775 0.8412374,-0.57403 0.8412375,-0.57404 1.5115566,-0.156 1.5115567,-0.15601 0.2798101,-0.27981 0.2798948,-0.27988 h 0.16941 0.1694075 l 0.296963,1.38906 0.2969657,1.38906 0.1312545,1.98438 0.1312571,1.98437 -0.2345372,1.03089 -0.2345346,1.0309 -0.3008233,0.18591 -0.3008207,0.18592 -0.5782098,-0.10841 -0.5782072,-0.10841 -2.3812501,0.77956 -2.3812501,0.77956 -4.081378,-0.0955 -4.081378,-0.0955 -0.167769,-0.27146 -0.16777,-0.27145 -1.529974,0.28283 -1.529975,0.28283 -8.64067,-0.18538 -8.64067,-0.18539 -1.499306,-0.031 -1.499304,-0.031 0.0441,-0.24987 0.0441,-0.24988 -0.79375,-0.18184 -0.79375,-0.18184 -0.992188,-0.0313 -0.992187,-0.0313 -0.529167,0.52917 -0.529167,0.52916 v 0.338 0.33801 l 0.411877,0.58804 0.41188,0.58804 h 0.481766 0.481767 l 0.326001,0.3928 0.326001,0.39281 1.166873,0.58277 1.166874,0.58276 0.209986,0.81036 0.20999,0.81037 0.195207,-0.0816 0.195206,-0.0816 0.921661,0.80922 0.921657,0.80923 0.321524,1.4e-4 0.321522,1.5e-4 1.190625,1.14957 1.190625,1.14957 0.79375,0.19112 0.79375,0.19112 0.661459,0.4379 0.661458,0.43789 1.218393,0.57257 1.218393,0.57256 1.006919,1.08829 1.006923,1.08829 h 0.437163 0.437166 l 0.76046,0.79375 0.76046,0.79375 h 0.73297 0.73297 l 0.738883,0.92603 0.738883,0.92603 0.447405,1e-5 0.447408,1e-5 0.141968,0.22971 0.141967,0.22971 1.291627,0.17134 1.291625,0.17134 0.438864,0.48494 0.438867,0.48494 3.104092,0.21279 3.104094,0.21279 3.0427084,0.0257 3.0427084,0.0257 0.5779188,0.33073 0.5779188,0.33073 h 0.385961 0.3859609 l 0.1605994,0.41851 0.1605995,0.41851 0.00132,1.7643 0.00132,1.7643 -0.451694,1.26023 -0.451694,1.26023 -1.0079673,1.21978 -1.0079673,1.21978 -0.1725321,0.69499 -0.1725295,0.69499 -0.6110023,0.66146 -0.6109997,0.66146 -0.8008249,0.90755 -0.8008221,0.90755 v 0.29394 0.29394 l -1.32809,1.70892 -1.328092,1.70893 -0.659603,0.99219 -0.659604,0.99219 h -0.505388 -0.505389 l -1.190411,1.39339 -1.19041,1.39339 -1.493587,0.50768 -1.493586,0.50769 -0.643752,0.76505 -0.643755,0.76506 v 0.26369 0.26368 l -0.463021,-0.0904 -0.463021,-0.0904 -0.466571,0.39743 -0.466572,0.39743 -1.385512,0.32382 -1.385512,0.32383 -0.551214,0.0112 z m 7.452021,-11.46986 0.418513,-0.1606 h 0.375237 0.375235 v -0.36644 -0.36645 l -0.631132,-0.41353 -0.631132,-0.41354 -0.162618,0.16262 -0.162618,0.16262 v 0.77796 0.77796 z m -48.799602,-2.01268 h 0.258149 l -0.163521,-0.26458 -0.16352,-0.26458 h 1.058333 1.058333 l 0.181039,-0.29293 0.181041,-0.29293 -0.585819,0.18593 -0.58582,0.18593 -0.388358,-0.55446 -0.38836,-0.55446 -0.315725,-0.007 -0.315727,-0.007 -0.72911,-0.74381 -0.729107,-0.7438 -2.65517,-0.33838 -2.655171,-0.33837 -0.518324,0.46908 -0.518327,0.46908 v 0.55804 0.55803 l 1.108991,0.48045 1.108993,0.48045 0.631653,-0.12075 0.631653,-0.12074 0.115536,0.29802 0.115535,0.29803 1.905453,0.0401 1.905455,0.0401 0.09687,0.29062 0.09687,0.29061 h 0.258149 z m 0.22692,-0.79375 h -0.264584 v -0.26458 -0.26458 h 0.264584 0.264583 v 0.26458 0.26458 z m 43.391667,-0.0249 0.132292,0.0168 0.349628,-0.22168 0.349628,-0.22168 v -1.49376 -1.49376 l 0.64256,-0.16127 0.642559,-0.16128 v -0.20282 -0.20283 l 0.755763,-0.15115 0.755764,-0.15116 0.3291,-0.79451 0.329099,-0.79452 -0.09268,-0.2559 -0.09267,-0.25591 -1.058334,0.37077 -1.058333,0.37077 -0.489479,0.004 -0.489479,0.004 -0.847495,0.8599 -0.847492,0.85989 -0.448966,0.65419 -0.448964,0.65418 0.0084,0.80103 0.0084,0.80102 0.322313,0.4201 0.322316,0.42009 0.396875,0.15433 0.396875,0.15433 0.132291,0.0168 z m -51.558035,-5.0122 0.432592,0.0101 0.427304,-0.65215 0.427305,-0.65215 v -0.1416 -0.1416 h -0.830728 -0.830726 l -0.325384,0.44499 -0.325385,0.44499 0.296217,0.3387 0.296214,0.33869 0.432591,0.0101 z m 18.825187,-4.29566 0.321389,-0.11027 -0.0026,-0.83471 -0.0026,-0.83472 h 0.274484 0.274486 l 0.455676,-0.53219 0.455676,-0.53219 v -0.37823 -0.37824 l -0.254934,-0.15756 -0.254931,-0.15755 -0.516768,0.51676 -0.516769,0.51677 0.15434,0.15435 0.154339,0.15433 h -0.295531 -0.295535 l -0.257886,-0.46081 -0.257885,-0.46082 -0.173574,0.17357 -0.173572,0.17358 0.340109,0.61797 0.340111,0.61797 -0.04475,1.01113 -0.04475,1.01112 0.321387,-0.11026 z m -7.46015,-0.77161 2.343489,-0.11205 0.106468,-0.11729 0.106469,-0.11729 0.152598,-0.52916 0.152599,-0.52917 -0.948759,-0.72189 -0.948756,-0.7219 v -1.35557 -1.35556 l 0.699241,-0.79687 0.69924,-0.79687 0.15847,-0.6314 0.158472,-0.6314 h -0.658968 -0.658969 l -0.494194,-1.47661 -0.494194,-1.47661 -0.858555,-0.5329 -0.858557,-0.5329 -0.184973,0.48816 -0.184972,0.48815 -0.307838,0.31194 -0.30784,0.31193 -0.294341,2.28017 -0.294341,2.28018 -0.155845,0.25216 -0.155842,0.25216 h -0.220287 -0.220284 l -0.166015,-0.66145 -0.166016,-0.66146 h -0.259543 -0.259543 l -0.04168,0.46302 -0.04168,0.46302 0.033,0.39687 0.033,0.39688 -0.388197,0.99754 -0.388194,0.99754 v 0.7884 0.78839 h 1.170107 1.170106 l 0.315817,0.95694 0.315818,0.95694 z m 35.959665,-0.21432 H -28.606 l -0.176388,-0.17639 -0.176389,-0.17639 -0.17639,0.17639 -0.176387,0.17639 z m -30.030209,-2.64584 h 0.132292 v -0.13229 -0.13229 h -0.132292 -0.132292 v 0.13229 0.13229 z m 45.376042,0 h 0.352777 l -0.176387,-0.17639 -0.17639,-0.17639 -0.17639,0.17639 -0.176387,0.17639 z m -45.469795,-2.46207 0.268759,-0.47769 0.395965,0.32862 0.395962,0.32862 -0.08659,-0.90926 -0.08659,-0.90926 -0.577411,-0.0822 -0.577411,-0.0822 -0.251219,0.47907 -0.251222,0.47908 0.2505,0.66146 0.250499,0.66146 z m -36.154164,-21.35043 h 0.132291 v -0.13229 -0.13229 h -0.132291 -0.132292 v 0.13229 0.13229 z m 14.169046,0 h 0.268338 l 1.295394,-0.65642 1.295398,-0.65643 0.172503,-0.27912 0.1725,-0.27911 -0.824584,-1.285 -0.824585,-1.28501 -0.548463,-0.14342 -0.548465,-0.14343 -0.630211,0.68001 -0.630208,0.68 0.146351,1.08866 0.146352,1.08865 0.120671,0.59531 0.120669,0.59531 z m -44.465703,-4.89363 0.26645,-0.16468 v -0.51355 -0.51355 h -0.24897 -0.24897 l -0.17135,0.27725 -0.17135,0.27725 0.15386,0.40098 0.15387,0.40097 z m 0.79561,-0.66262 h 0.35278 l -0.17639,-0.17639 -0.17639,-0.17638 -0.17639,0.17638 -0.17638,0.17639 z m 44.146547,-1.90211 0.09342,0.05 1.324261,-1.19063 1.324263,-1.19062 h 0.48165 0.481653 l 0.392221,0.39222 0.392221,0.39222 -0.139597,0.53382 -0.139596,0.53382 h 0.323749 0.32375 l -0.143894,-0.37498 -0.143894,-0.37497 0.413787,-0.15879 0.413785,-0.15878 0.304197,0.41601 0.304196,0.41601 0.918959,0.20156 0.918956,0.20155 0.661459,-0.16188 0.661458,-0.16188 -0.02646,-0.3188 -0.02646,-0.3188 -0.03969,-1.13466 -0.03969,-1.13466 -2.231117,-2.22634 -2.231118,-2.22633 -0.519932,-0.19234 -0.519936,-0.19233 -0.174979,-0.28313 -0.17498,-0.28312 h -1.147601 -1.147604 l -0.821158,-0.93525 -0.821158,-0.93525 v -0.6638 -0.6638 l 0.661458,-0.71335 0.661459,-0.71335 v -2.29855 -2.29854 l 0.977966,-0.80613 0.977969,-0.80612 0.04226,-2.77814 0.04226,-2.77813 0.335087,-0.40376 0.335087,-0.40375 h 0.401976 0.401973 l 1.649527,-1.77575 1.649523,-1.77576 -0.131011,-2.12685 -0.131013,-2.12685 0.560657,-0.50403 0.560657,-0.50403 0.0062,-0.81888 0.0062,-0.81889 0.721423,-1.30053 0.721424,-1.30054 0.396875,-0.19897 0.396875,-0.19897 0.828334,-0.30546 0.828333,-0.30546 0.177044,-1.33463 0.177046,-1.33462 -0.410068,-0.45312 -0.410064,-0.45312 v -0.79493 -0.79494 l -0.299773,-1.49267 -0.29977,-1.49268 -0.49398,-0.15678 -0.493977,-0.15678 v -0.26965 -0.26964 l -0.850167,-1.183842 -0.85017,-1.183838 -0.463545,0.121219 -0.463544,0.121221 -0.167619,-0.528121 -0.167619,-0.528119 0.177104,-1.181013 0.177104,-1.181013 -0.315669,-0.380356 -0.31569,-0.380358 h -0.579305 -0.579303 l -0.537943,-0.727604 -0.53794,-0.727604 0.02516,-0.163417 0.02516,-0.163417 -1.259059,-0.961062 -1.259062,-0.961062 h -0.147654 -0.147656 l -0.867217,-0.661459 -0.867216,-0.661458 h -1.409401 -1.409402 l -0.473998,0.428964 -0.474001,0.428964 -0.42795,-0.16422 -0.427951,-0.16422 -0.403227,-1.026514 -0.403225,-1.026513 -0.448641,0.117322 -0.448643,0.117323 -1.385663,-0.546178 -1.385665,-0.546178 h -1.294776 -1.294775 l -0.933189,0.595312 -0.93319,0.595313 -0.01119,0.422014 -0.01119,0.422013 -0.507693,0.459456 -0.507693,0.459455 -1.138632,0.336198 -1.138634,0.336199 -0.489543,-0.622355 -0.489559,-0.622355 h -0.477567 -0.477565 l -0.316325,0.381148 -0.316326,0.381148 -0.331111,-0.12706 -0.33111,-0.127059 -1.2079,0.517765 -1.2079,0.517764 -0.17705,0.28648 -0.17705,0.286481 h -1.0833 -1.0833 l -1.34849,1.27381 -1.34848,1.273811 -0.45446,0.253269 -0.45445,0.25327 -0.45909,1.750358 -0.45908,1.750356 0.4907,1.088189 0.49071,1.088183 h 0.26277 0.26278 l -0.19895,1.91823 -0.19895,1.91823 -0.0379,0.92604 -0.0379,0.92604 1.37632,0.0795 1.37632,0.0795 0.81515,-0.42153 0.81514,-0.42153 -0.14526,-0.23503 -0.14526,-0.23503 0.29715,-0.18365 0.29715,-0.18365 -0.32097,-0.19837 -0.32097,-0.19837 0.45516,-0.95918 0.45516,-0.95918 0.30058,-0.0249 0.30058,-0.0249 1.50194,-0.003 1.50193,-0.003 0.26993,0.16682 0.269924,0.16682 0.789544,1.16989 0.789543,1.16988 0.162216,1.2706 0.162213,1.2706 0.127789,0.83402 0.127791,0.83402 1.000032,0.40014 1.000032,0.40013 0.345729,0.41658 0.345726,0.41657 0.234606,-0.14499 0.234603,-0.14499 0.03307,0.28019 0.03307,0.2802 0.03307,0.24254 0.03307,0.24253 0.203827,0.20383 0.203827,0.20383 0.557331,0.0411 0.557329,0.0411 0.521748,-0.8843 0.521748,-0.8843 0.172304,-0.0341 0.172302,-0.0341 0.79375,-0.0977 0.79375,-0.0977 0.661459,-0.0111 0.661458,-0.0111 1.629939,0.1614 1.629937,0.1614 0.166071,-0.52325 0.166071,-0.52324 0.386805,-0.14843 0.386802,-0.14843 v -0.55061 -0.55061 l 0.387639,-0.74961 0.387638,-0.74961 0.641511,-0.16101 0.641512,-0.16101 0.170436,-0.44415 0.170437,-0.44415 -0.337492,-0.20858 -0.337492,-0.20858 -0.638677,0.16029 -0.638678,0.1603 -0.311364,-0.42581 -0.311362,-0.42582 0.112498,-0.7665 0.112498,-0.7665 2.158262,-0.16852 2.158259,-0.16852 0.330729,0.44635 0.33073,0.44635 v 0.47055 0.47055 l -0.540684,0.96264 -0.540687,0.96264 0.388054,0.30218 0.388051,0.30217 0.417216,1.43709 0.417216,1.43708 v 1.05563 1.05562 l 0.437883,0.48385 0.437883,0.48386 h 0.359457 0.359458 l 0.591722,0.33073 0.591722,0.33073 0.463021,0.37173 0.463021,0.37174 v 0.38394 0.38394 l -0.815983,1.03026 -0.815983,1.03026 h -0.479525 -0.479526 l -0.755012,0.88521 -0.755013,0.88521 -0.265242,0.45918 -0.265245,0.45919 -0.726942,-0.18245 -0.726946,-0.18246 v -0.36819 -0.36819 l -0.033,-0.19844 -0.033,-0.19843 -1.752933,-1.24872 -1.752934,-1.24871 -0.815252,-1.1314 -0.815253,-1.1314 -0.985774,0.0445 -0.985774,0.0445 -0.626303,0.41037 -0.626301,0.41037 -0.176263,0.55535 -0.17626,0.55535 -0.439118,-0.18144 -0.439119,-0.18145 -0.47172,-0.13541 -0.47172,-0.1354 -0.547002,0.49615 -0.547,0.49616 -1.094372,0.52916 -1.094373,0.52917 -0.247843,0.88625 -0.247845,0.88625 0.438351,1.36271 0.438348,1.36271 0.04986,0.79375 0.04986,0.79375 -0.204124,1.14268 -0.204123,1.14268 -0.395123,-0.15162 -0.395124,-0.15163 -0.600551,-0.15072 -0.600551,-0.15073 -0.63164,0.81767 -0.63164,0.81766 -0.620802,0.79174 -0.620806,0.79174 -0.137795,1.02734 -0.137792,1.02733 0.945568,0.89189 0.945571,0.89189 0.04717,2.03461 0.04717,2.03461 0.625751,0.58786 0.62575,0.58786 v 0.55647 0.55646 l 0.366188,0.5219 0.366189,0.52189 1.094571,1.19062 1.094573,1.19063 0.223036,-0.35425 0.223036,-0.35425 0.97637,0.85726 0.976368,0.85727 0.887278,-0.27232 0.887275,-0.27231 0.422479,0.42248 0.422481,0.42248 4.175927,0.024 4.175927,0.0241 0.320817,0.19828 0.320818,0.19827 v 0.73043 0.73042 l -0.638847,0.55547 -0.638847,0.55547 -0.551778,0.2953 -0.551778,0.2953 v 0.38757 0.38756 l -0.198437,0.009 -0.198438,0.009 -0.614219,0.51193 -0.614217,0.51194 -0.114263,0.92124 -0.114261,0.92124 1.52223,0.0955 1.52223,0.0955 0.09342,0.05 z m -5.888858,-20.0583 h -0.869418 l -0.489556,-0.54096 -0.489556,-0.54095 -0.0873,-0.57204 -0.0873,-0.57204 -0.266862,-0.16493 -0.266864,-0.16493 0.174265,-0.45413 0.174266,-0.45413 1.377151,0.0557 1.377151,0.0557 0.291801,-0.18034 0.291803,-0.18034 -0.0227,-0.79859 -0.0227,-0.79859 -0.224049,-0.13847 -0.224052,-0.13847 v -0.61754 -0.61753 l -0.413645,-0.15874 -0.413644,-0.15873 0.157533,-0.25489 0.157536,-0.2549 0.354258,0.13594 0.354261,0.13594 0.175395,-0.45707 0.175395,-0.45707 -0.337478,-0.20858 -0.337479,-0.20857 0.286668,-0.28667 0.286671,-0.28667 1.298617,0.43184 1.29862,0.43184 0.457137,0.57142 0.457139,0.57141 0.0059,1.63803 0.0059,1.63804 -0.253029,0.15638 -0.253026,0.15638 0.165698,0.4318 0.165701,0.43181 -0.28011,-0.17312 -0.280111,-0.17312 -0.644226,0.85732 -0.644226,0.85732 -0.170657,0.46302 -0.170656,0.46302 h -0.521856 -0.521856 l -0.163521,0.26458 -0.16352,0.26459 h -0.869421 z m 10.028775,-20.37292 h -0.132292 v -0.13229 -0.13229 h 0.132292 0.132291 v 0.13229 0.13229 z m 1.65381,0 h -0.910336 l -0.437883,-0.48385 -0.437883,-0.48386 v -0.82975 -0.82975 l 0.507823,-0.27178 0.507822,-0.27178 0.120563,0.32861 0.120563,0.32862 0.350573,-0.33073 0.350573,-0.33073 h 0.549669 0.549672 l 0.588036,0.41188 0.588039,0.41188 v 0.62843 0.62844 l -0.768448,0.54719 -0.768447,0.54718 z m -8.79756,-3.96875 h -0.132292 v -0.13229 -0.13229 h 0.132292 0.132291 v 0.13229 0.13229 z m 8.93405,-0.9022 -0.855535,0.10304 -0.152636,-0.7249 -0.152635,-0.7249 -0.200256,-0.39687 -0.200257,-0.39688 0.186616,-0.87845 0.186618,-0.87845 -0.11534,-0.44446 -0.115339,-0.44447 0.369535,-0.503623 0.369538,-0.503621 0.96605,-0.0991 0.966049,-0.0991 v 0.770919 0.770925 l 0.367287,0.70794 0.367286,0.70795 -0.629002,1.18298 -0.629001,1.18299 0.06328,0.28253 0.06328,0.28252 z m -12.373634,-2.14953 -1.058333,0.0731 -0.463021,-0.11759 -0.463021,-0.1176 v -0.71193 -0.71194 l 1.098442,-0.47588 1.098439,-0.47588 0.380293,0.38029 0.380294,0.3803 0.04262,0.85199 0.04262,0.852 z m -8.826944,-0.12327 h -0.262774 l -0.54837,-0.69714 -0.54837,-0.69714 v -0.80338 -0.803382 l 0.421735,-0.46601 0.421733,-0.466011 0.438163,0.138441 0.43816,0.13844 0.604563,0.290251 0.604565,0.29025 -0.175972,0.413361 -0.175974,0.41336 0.04183,0.84663 0.04183,0.84663 -0.519168,0.27785 -0.519168,0.27785 z m -10.024616,-0.80216 -0.19844,-0.008 -0.46302,-0.35148 -0.46302,-0.35148 v -0.63479 -0.6348 l 0.55493,-0.346555 0.55493,-0.346562 0.10082,0.100823 0.10083,0.100822 0.0476,0.512822 0.0476,0.51282 -0.0419,0.72761 -0.0419,0.7276 z m 27.482216,-3.695757 h -0.478849 l -0.437882,-0.483854 -0.437883,-0.483854 v -0.409792 -0.409789 l 0.36576,-0.303554 0.36576,-0.303554 0.824865,0.06285 0.824865,0.06285 v 0.622572 0.622573 l -0.273891,0.511772 -0.273894,0.511773 z m -18.287948,-4.762499 h -0.264583 V 93.27085 93.006267 h 0.264583 0.264584 v 0.264583 0.264584 z m -0.08819,-1.146528 -0.17639,0.176389 v -0.352778 -0.352778 l 0.17639,0.176389 0.176387,0.176389 z m 31.14774,55.820884 0.682209,0.0379 0.546426,-0.88414 0.546425,-0.88413 0.473668,-0.15034 0.473668,-0.15033 0.334782,-0.62555 0.33478,-0.62555 -0.177956,-0.56069 -0.177959,-0.56069 h -0.597506 -0.597508 l -0.589428,0.62741 -0.589429,0.62742 -1.176485,0.48516 -1.176483,0.48516 -0.0036,0.27649 -0.0036,0.27648 -0.159539,0.59531 -0.159536,0.59532 h 0.54441 0.544412 l 0.123031,0.19843 0.123034,0.19844 0.682209,0.0379 z m -5.183386,-4.4124 0.07928,0.009 0.751268,-0.3885 0.751269,-0.38849 0.115152,-2.0589 0.115152,-2.0589 -0.09683,-0.28567 -0.09682,-0.28567 -0.915025,-0.35903 -0.915027,-0.35902 v -0.2689 -0.2689 l -1.058333,1.03344 -1.058334,1.03343 v 0.2562 0.2562 l -0.460721,0.50909 -0.460722,0.5091 0.593013,0.48019 0.593014,0.48019 v 0.26266 0.26265 l 0.992187,0.81054 0.992188,0.81055 0.07928,0.009 z m -2.989702,-2.10779 h 0.132292 v -0.13229 -0.13229 h -0.132292 -0.132292 v 0.13229 0.13229 z m -61.19004,-4.23333 h 0.25422 l 0.76843,-0.45393 0.76843,-0.45392 v -0.4192 -0.4192 l 0.24351,-0.25136 0.24352,-0.25135 0.0467,-1.05834 0.0467,-1.05833 -0.0256,-0.46302 -0.0256,-0.46302 h -0.68587 -0.68587 l -0.70319,0.55001 -0.70319,0.55002 -0.13229,0.52393 -0.13229,0.52393 -0.23501,-0.0382 -0.235,-0.0382 -0.22396,0.35333 -0.22397,0.35332 -0.004,0.70841 -0.004,0.7084 0.69714,0.54837 0.69714,0.54837 h 0.25423 z m 75.874415,-1.5875 h 0.264584 v -0.41249 -0.41249 l -0.264584,0.16352 -0.264583,0.16352 v 0.24897 0.24897 z m -15.411979,-0.31316 0.727604,-0.0837 0.08372,-0.7276 0.08372,-0.72761 h -0.198959 -0.198959 l -0.612364,0.57529 -0.612365,0.57529 v 0.23604 0.23603 z m -44.260556,-2.60395 0.27357,-0.93273 0.52917,0.0985 0.52917,0.0984 -0.98688,-1.02352 -0.98688,-1.02353 0.16482,-1.39167 0.16482,-1.39166 0.79063,-0.66527 0.79064,-0.66527 -0.52447,-0.58318 -0.52446,-0.58318 -0.16341,-0.46302 -0.16341,-0.46302 h -0.35906 -0.35906 l -0.60345,-0.64235 -0.60346,-0.64235 -0.36871,0.14149 -0.36871,0.14149 0.004,-0.49133 0.004,-0.49133 0.16231,-0.60591 0.16231,-0.60591 0.76011,-0.39307 0.76013,-0.39307 v -0.64931 -0.64931 l -0.40039,-1.00065 -0.40038,-1.00066 -0.80218,-0.35508 -0.80219,-0.35508 -1.05474,-1.42775 -1.05473,-1.42774 -0.45468,-0.0403 -0.45467,-0.0403 -0.26459,-0.0328 -0.26458,-0.0328 -0.33775,-0.21139 -0.33774,-0.2114 0.0625,-0.31078 0.0625,-0.31078 -0.31864,-0.57521 -0.31865,-0.57521 -0.83585,-0.41697 -0.83585,-0.41698 h -0.74692 -0.74692 l -0.56075,-1.12448 -0.56075,-1.12448 -0.19203,-0.66146 -0.19204,-0.66146 -0.64245,-0.0479 -0.64246,-0.0479 -0.92604,-0.22749 -0.92604,-0.22749 v -0.384 -0.38344 l -0.66146,-0.13489 -0.66146,-0.13489 -1.10595,-0.52916 -1.10595,-0.52917 -0.12881,-0.47358 -0.12882,-0.47359 -0.74961,0.1757 -0.74961,0.17571 -0.39687,0.38109 -0.39688,0.3811 0.57714,0.47364 0.57713,0.47365 1.17741,0.16138 1.17741,0.16138 1.20393,0.73697 1.20394,0.73697 0.15965,0.6122 0.15966,0.61219 1.73591,1.71047 1.73592,1.71047 -0.15746,0.41034 -0.15746,0.41034 0.16215,1.01406 0.16216,1.01406 1.4323,0.98646 1.4323,0.98646 0.69551,0.0763 0.6955,0.0764 0.61071,0.74637 0.6107,0.74638 0.01,0.7087 0.01,0.70871 0.39688,0.39687 0.39687,0.39688 v 0.96055 0.96056 l 0.26458,-0.16352 0.26459,-0.16352 v 0.24294 0.24295 l 1.11409,1.26568 1.11409,1.26567 0.0104,2.79783 0.0104,2.79782 0.65696,0.32836 0.65695,0.32836 0.26909,0.35814 0.26909,0.35814 0.46952,0.17623 0.46952,0.17624 -0.1637,0.65223 -0.1637,0.65223 0.21435,0.34576 0.21436,0.34577 0.27357,-0.93273 z m -3.43059,-9.25373 h -0.1323 v -0.13229 -0.13229 h 0.1323 0.13229 v 0.13229 0.13229 z m 66.565307,9.11416 0.250616,-0.15489 -0.15489,-0.25062 -0.15489,-0.25061 -0.250616,0.15489 -0.250616,0.15489 0.15489,0.25061 0.15489,0.25062 z m -52.644217,-0.40239 0.16275,0.0195 0.69714,-0.54837 0.69714,-0.54837 v 0.20441 0.20442 l 0.31125,-0.31125 0.31125,-0.31125 -0.38032,-0.46927 -0.38032,-0.46928 -0.4601,-0.83457 -0.46009,-0.83457 0.008,-0.48835 0.008,-0.48834 0.38845,-0.51359 0.38847,-0.51359 v -0.52769 -0.52769 l -0.57529,-0.61237 -0.57529,-0.61236 h -0.426 -0.426 l -0.46888,-0.79375 -0.46888,-0.79375 h -0.61082 -0.61081 l -0.67273,0.52917 -0.67273,0.52916 h -0.42129 -0.42128 v 0.26459 0.26458 h -0.547 -0.547 l 0.12939,0.46302 0.12939,0.46302 0.17249,2.24896 0.17249,2.24896 0.31126,0.4198 0.31127,0.4198 0.59531,0.31711 0.59531,0.31711 v -0.48556 -0.48555 l 0.32852,-0.32852 0.32852,-0.32852 -0.28558,-0.18742 -0.28558,-0.18742 -0.14063,-0.55773 -0.14064,-0.55773 0.24314,-0.43446 0.24313,-0.43445 h 0.6327 0.63269 l 0.13172,0.21311 0.13171,0.21312 0.13304,1.10373 0.13303,1.10373 -0.25345,0.15664 -0.25345,0.15665 0.14093,0.22803 0.14092,0.22801 -0.2689,0.16619 -0.2689,0.16619 v 0.32658 0.32659 l 1.12448,0.43207 1.12448,0.43207 0.16276,0.0195 z m -1.48568,-8.1826 h -0.13229 v -0.13229 -0.13229 h 0.13229 0.13229 v 0.13229 0.13229 z m -1.33853,6.35 h 0.41249 v -0.26458 -0.26459 h -0.24897 -0.24897 l -0.16352,0.26459 -0.16352,0.26458 z m -25.78126,-0.4407 1.71979,-0.13497 0.46302,-0.53523 0.46302,-0.53522 -0.004,-0.83059 -0.004,-0.83058 -0.24615,-0.38921 -0.24614,-0.38922 -0.17388,0.17389 -0.17389,0.17388 -0.69253,-0.2633 -0.69254,-0.2633 -0.32501,0.44447 -0.32501,0.44448 -0.93263,-0.17496 -0.93264,-0.17496 -0.64623,0.42342 -0.64623,0.42343 -0.15356,0.40017 -0.15356,0.40017 0.26576,0.49658 0.26577,0.49658 0.72547,0.38972 0.72548,0.38972 1.71979,-0.13497 z m 70.776047,-5.9093 h 0.132291 v -0.13229 -0.13229 h -0.132291 -0.132292 v 0.13229 0.13229 z m 15.015104,-0.066 0.330729,-0.11012 0.09666,-0.49882 0.09666,-0.49882 -0.427392,0.3547 -0.427392,0.35471 v 0.25423 0.25424 z m -91.223111,-0.74564 0.78576,0.0179 0.72817,-0.85317 0.72817,-0.85317 -0.67818,-0.70787 -0.67818,-0.70787 h -0.88483 -0.88482 l -0.37762,0.43656 -0.37762,0.43657 -0.15512,0.82548 -0.15511,0.82549 0.58182,0.28109 0.58181,0.28108 0.78575,0.0179 z m 95.000769,-0.79261 0.271928,0.0168 0.42977,-0.46302 0.429774,-0.46302 0.687361,-0.62308 0.687363,-0.62309 -0.0094,-0.30295 -0.0094,-0.30296 -0.328472,-0.59122 -0.328473,-0.59122 -0.654338,0.63109 -0.654341,0.63109 -1.023485,1.08156 -1.023483,1.08155 0.626608,0.25087 0.62661,0.25086 0.271928,0.0168 z m -60.978189,-7.39156 h 0.51355 v -0.64585 -0.64584 l 0.26458,-0.16352 0.26458,-0.16352 -0.002,-1.24116 -0.002,-1.24116 -0.71214,-0.33072 -0.71214,-0.33073 h -1.13788 -1.13788 v 0.64831 0.64831 l 0.46302,0.26968 0.46302,0.26969 -0.20693,0.008 -0.20695,0.008 0.69853,1.25678 0.69852,1.25677 0.11934,0.19843 0.11935,0.19844 h 0.51355 z m 4.56813,-2.38125 h 2.26419 l 0.17467,-0.28262 0.17467,-0.28263 0.35014,0.13437 0.35015,0.13436 0.41684,-0.63618 0.416845,-0.63618 v -0.2739 -0.27389 h -1.235945 -1.23593 l -0.48386,-0.43788 -0.48385,-0.43789 v -0.53347 -0.53347 l 0.4519,-0.49934 0.45189,-0.49934 -0.28229,-0.44754 -0.2823,-0.44753 -0.23575,0.0297 -0.23574,0.0297 -0.26459,0.5039 -0.26458,0.5039 -0.92604,1.29029 -0.92604,1.2903 0.0686,0.234 0.0686,0.23401 -0.39933,0.15323 -0.39933,0.15324 v 0.25189 0.25189 l 0.22636,-0.1399 0.22636,-0.1399 -0.12491,0.65345 -0.12492,0.65346 z m -6.51942,-3.00322 0.16854,-0.16854 -0.4632,-0.51183 -0.4632,-0.51182 0.16701,-0.5262 0.16701,-0.52621 -0.60618,0.15331 -0.60618,0.1533 -0.19439,0.28779 -0.19438,0.28779 -0.004,0.48405 -0.004,0.48404 0.7602,-0.16697 0.76021,-0.16697 0.17206,0.4484 0.17207,0.4484 0.16854,-0.16854 z m 70.447143,-2.02387 h 0.24897 l 0.170683,-0.27617 0.170685,-0.27617 -0.353507,-0.42595 -0.353507,-0.42595 0.06615,-0.0916 0.06615,-0.0916 -0.0088,-0.33073 -0.0088,-0.33073 -0.520364,0.62463 -0.520364,0.62462 v 0.35926 0.35926 l 0.396875,-0.15229 0.396875,-0.1523 v 0.29289 0.29289 h 0.248967 z m 0.715444,-1.40538 0.105291,-0.10529 -0.253497,-0.63373 -0.253498,-0.63372 -0.01677,0.30909 -0.01678,0.30909 0.164978,0.42992 0.164979,0.42993 0.105288,-0.10529 z m -96.875877,-2.0342 h 0.13229 v -0.13229 -0.13229 h -0.13229 -0.13229 v 0.13229 0.13229 z m 21.29014,-5.55625 h 0.16757 l 0.35057,-0.330729 0.35058,-0.330729 0.12126,0.330729 0.12127,0.330729 h 0.25815 0.25815 l -0.1465,-0.237045 -0.1465,-0.237046 0.37453,-0.721916 0.37454,-0.721915 -0.11622,-0.30285 -0.11621,-0.302847 1.72465,-1.767577 1.72465,-1.767577 0.006,-0.476343 0.006,-0.476342 0.47176,-0.613187 0.47175,-0.613187 0.9478,-0.0752 0.9478,-0.0752 0.79822,-0.568381 0.79821,-0.568381 h 0.4956 0.4956 l 0.65418,-0.437451 0.65418,-0.437452 0.68859,-0.633005 0.68859,-0.633005 1.914334,-0.16049 1.914327,-0.16049 1.101249,-0.901999 1.101251,-0.901998 0.442262,-0.360232 0.442261,-0.360232 0.483781,0.09168 0.48378,0.09168 2.281666,0.02024 2.281666,0.02024 1.157917,1.075668 1.157917,1.075668 1.141439,-0.14689 1.141442,-0.146889 -0.157139,0.495096 -0.157136,0.495097 0.351944,0.135054 0.351946,0.135053 0.648126,-0.352727 0.648128,-0.352729 1.5875,0.158271 1.5875,0.15827 0.610331,0.39559 0.61033,0.39559 0.835948,0.06576 0.835949,0.06576 0.604242,0.702474 0.604242,0.702474 v 0.371923 0.371923 l 1.071343,0.288482 1.07134,0.288482 0.532329,-0.168954 0.532328,-0.168954 -0.182578,-1.498393 -0.182579,-1.498392 -0.534172,-1.058333 -0.534173,-1.058334 0.05474,-0.132291 0.05474,-0.132292 -0.52424,-0.132292 -0.524243,-0.132291 -0.814289,-1.028569 -0.814271,-1.028568 -0.0045,-0.294348 -0.0045,-0.294348 -0.987737,-0.969191 -0.987734,-0.969192 -1.667196,-0.559538 -1.667192,-0.559539 -0.903145,0.06082 -0.903142,0.06082 -0.18574,-0.185739 -0.185737,-0.18574 h 0.456586 0.456586 l -0.167857,-0.2716 -0.167857,-0.2716 -0.31078,0.03836 -0.310776,0.03837 -0.73963,-0.03135 -0.739632,-0.03135 -0.671671,-0.671671 -0.671669,-0.67167 -2.028283,-0.23273 -2.028282,-0.232731 -1.322917,-0.0081 -1.322917,-0.0081 -0.447463,0.131676 -0.447463,0.131676 -0.94116,1.310025 -0.941158,1.310025 h -0.934981 -0.93498 l -0.949854,0.396875 -0.949857,0.396875 h -1.45121 -1.4512 l 0.1523,0.396875 0.15229,0.396875 h -0.78544 -0.78545 v 0.518546 0.518546 l -1.12448,0.324251 -1.12448,0.324251 -1.05833,0.80619 -1.05834,0.80619 -0.79375,0.738296 -0.79375,0.738297 -1.45521,1.132028 -1.4552,1.132029 -0.0833,0.99883 -0.0833,0.99883 0.41405,0.631924 0.41405,0.631924 v 0.497992 0.497992 l -0.52916,0.610134 -0.52917,0.610134 v 0.50946 0.509461 l -1.05833,1.079659 -1.05834,1.079661 v 0.839841 0.83984 l 0.17639,0.176387 0.17639,0.17639 z m 0.93486,-1.058333 h -0.13229 v -0.132292 -0.132292 h 0.13229 0.13229 v 0.132292 0.132292 z m 0.26459,-1.058334 h -0.1323 V 96.578142 96.44585 h 0.1323 0.13229 v 0.132292 0.132291 z m 6.05455,-4.762499 h 0.10144 l 0.13847,-0.529532 0.13848,-0.529532 -0.23991,0.148272 -0.23991,0.148271 v 0.38126 0.381261 z m 31.824965,-1.675695 0.176387,-0.176389 -0.176387,-0.176389 -0.17639,-0.176388 v 0.352777 0.352778 z m -1.367015,-9.436805 h 0.132292 V 80.703142 80.57085 h -0.132292 -0.132292 v 0.132292 0.132292 z m 37.712989,127.523886 -0.483465,0.25874 -0.298601,-0.35979 -0.298603,-0.3598 0.06765,-2.80115 0.06765,-2.80115 -0.325996,-0.32599 -0.325996,-0.326 v -0.73052 -0.73053 l -0.579056,-0.53947 -0.579057,-0.53948 h -0.327781 -0.327782 l -0.482224,-0.61238 -0.482225,-0.61238 -2.248958,-0.44334 -2.248958,-0.44335 -2.248959,0.14516 -2.248958,0.14516 -0.911164,0.24194 -0.911164,0.24193 -0.10881,-0.10881 -0.108808,-0.10881 0.99181,-0.8762 0.991809,-0.87621 0.557329,-0.21872 0.557331,-0.21873 2.38125,0.20093 2.38125,0.20092 1.5875,0.0147 1.5875,0.0147 0.322316,0.40001 0.322313,0.40002 0.0084,0.47304 0.0084,0.47303 0.712989,-0.0762 0.712986,-0.0762 0.315891,0.61997 0.315891,0.61997 0.823204,0.50062 0.823206,0.50062 v 0.82294 0.82295 l 0.490244,0.7023 0.490246,0.7023 -0.06062,2.13582 -0.06062,2.13581 -0.182957,0.57645 -0.182956,0.57644 -0.483466,0.25874 z m -154.895849,-0.59555 -0.15985,0.15985 0.0209,-0.50711 0.0209,-0.50712 0.13897,0.34727 0.13896,0.34726 -0.15985,0.15985 z m 127.766193,-0.72209 h -0.132291 v -0.13229 -0.13229 h 0.132291 0.132292 v 0.13229 0.13229 z m -127.280203,-0.26458 h -0.11668 v -0.26459 -0.26458 h 0.2802 0.2802 l -0.16352,0.26458 -0.16352,0.26459 z m 1.14995,-0.22801 -0.11141,0.33424 -0.20723,-0.33531 -0.20722,-0.33529 0.15878,-0.15879 0.15879,-0.15879 0.15985,0.15986 0.15985,0.15985 z m 125.86567,-0.0366 h -0.132292 v -0.13229 -0.13229 h 0.132292 0.132292 v 0.13229 0.13229 z m -125.67709,-1.05833 h -0.13229 v -0.13229 -0.13229 h 0.13229 0.13229 v 0.13229 0.13229 z m 129.254426,-1.5875 h -0.181851 l -0.176387,-0.17639 -0.17639,-0.17639 v -0.34922 -0.34923 l 0.958353,-0.40043 0.958355,-0.40042 h 0.09998 0.09998 v 0.27722 0.27721 l -0.700093,0.64883 -0.700095,0.64882 z m -118.386556,-2.91042 h -0.0874 l -0.31729,-0.38231 -0.31729,-0.38231 0.0865,-0.60987 0.0864,-0.60988 h 0.52917 0.52917 l -0.063,-0.59531 -0.063,-0.59532 h 0.34905 0.34905 l 0.34309,0.64108 0.34309,0.64107 -0.15975,0.63648 -0.15975,0.63649 -0.68025,0.30994 -0.68025,0.30994 z m 138.357137,-5.02708 h -0.132292 v -0.13229 -0.13229 h 0.132292 0.132292 v 0.13229 0.13229 z m -94.676737,-43.74444 -0.17639,0.17639 v -0.35278 -0.35278 l 0.17639,0.17639 0.17638,0.17639 z m 30.91215,-4.22467 -0.52917,0.0528 -0.85305,-0.44964 -0.85304,-0.44963 -0.3837,-1.28731 -0.3837,-1.28731 0.14057,-0.36634 0.14058,-0.36633 h 0.514 0.514 l 0.7797,0.4032 0.7797,0.4032 0.40953,0.98013 0.40953,0.98014 -0.0779,0.66718 -0.0779,0.66719 z"
             id="path4593"
             inkscape:connector-curvature="0" />
        </g>
        <path
           style="fill:#474b39;fill-opacity:1;stroke-width:0.26458332"
           d="M 5.52114,230.72194 H 4.9267 L 4.76318,230.45735 4.59965,230.19277 H 3.72162 2.84359 L 2.5823,229.86204 2.32101,229.53131 1.75616,227.7562 1.1913,225.98108 v -2.75663 -2.75664 l 0.39688,-0.94986 0.39687,-0.94985 v -1.28084 -1.28085 l 0.38846,-0.51359 0.38846,-0.51359 0.008,-0.81378 0.008,-0.81377 0.69556,-0.64144 0.69555,-0.64143 0.36278,-0.8514 0.36277,-0.85139 v -0.40538 -0.40537 L 4.36547,209.0261 3.8363,208.49694 H 2.62628 1.41625 l 0.0892,-0.46302 0.0892,-0.46302 0.79013,-0.0444 0.79012,-0.0444 1.45166,-0.14337 1.45165,-0.14336 0.0897,-0.26922 0.0897,-0.26921 1.16622,-1.50186 1.16621,-1.50185 0.17329,-0.95157 0.17328,-0.95157 0.99165,-1.08596 0.99166,-1.08596 0.19046,-0.63383 0.19047,-0.63383 1.14388,-1.19063 1.14388,-1.19062 0.45892,-1.19063 0.45891,-1.19062 1.27951,-1.37322 1.2795,-1.37323 v -0.5167 -0.51669 l 0.39687,-0.1523 0.39688,-0.15229 v -0.77163 -0.77162 l -0.61698,-0.40427 -0.61699,-0.40426 -0.26221,0.1754 -0.26221,0.17539 -0.17328,0.46938 -0.17327,0.46938 -0.46888,0.19208 -0.46889,0.19208 -1.11444,0.79375 -1.11443,0.79375 -0.01,0.34206 -0.01,0.34207 -1.20288,1.28597 -1.20288,1.28598 -0.61571,0.15453 -0.61571,0.15453 -0.34959,0.86326 -0.3496,0.86327 -0.5127,0.70772 -0.51271,0.70772 -0.56025,0.14358 -0.56026,0.14358 -0.52917,0.9983 -0.52917,0.99829 -1.6408,1.06082 -1.6408,1.06082 -0.0128,0.31732 -0.0129,0.31732 -0.85989,0.80593 -0.8599,0.80594 -0.46302,0.001 -0.46305,10e-4 v -0.52917 -0.52917 l 0.4961,-0.49609 0.49609,-0.49609 0.23605,-0.0992 0.23604,-0.0992 1.0363,-1.45521 1.03628,-1.45521 1.60501,-1.72481 1.60501,-1.72481 0.97283,-1.11946 0.97282,-1.11946 h 0.3213 0.3213 l 2.05777,-2.11667 2.05777,-2.11666 h 0.39338 0.39339 l 1.1084,-0.92604 1.1084,-0.92605 h 0.61478 0.61479 l 0.41851,-0.1606 0.41852,-0.16059 v -0.48525 -0.48524 l 0.24264,-0.14996 0.24264,-0.14996 1.16432,-0.15959 1.16431,-0.15959 0.46879,0.46878 0.46878,0.46879 -0.18114,1.20794 -0.18114,1.20795 -0.73781,0.93231 -0.7378,0.93231 -0.3891,0.92604 -0.38909,0.92604 -0.9732,1.27036 -0.9732,1.27035 -0.74819,1.50777 -0.74818,1.50777 -0.43219,0.79375 -0.43218,0.79375 -0.002,0.26458 -0.002,0.26459 -1.02966,0.9688 -1.02966,0.9688 -0.32928,0.99773 -0.32928,0.99773 -0.75729,1.19412 -0.75729,1.19412 v 0.44842 0.44842 l 0.99219,0.15279 0.99219,0.15279 1.19062,0.14306 1.19063,0.14305 1.4552,0.0638 1.45521,0.0638 0.33073,0.21405 0.33073,0.21405 v 0.3678 0.36779 l -0.94938,0.72412 -0.94937,0.72413 -0.83656,-0.3341 -0.83656,-0.33411 -1.7198,-0.40463 -1.71979,-0.40463 -0.73003,-0.1346 -0.73002,-0.1346 -0.43544,0.36111 -0.43544,0.36112 -0.38458,0.92008 -0.38459,0.92008 -0.73723,1.07152 -0.73722,1.07152 -0.67277,1.97715 -0.67277,1.97715 -0.40825,3.40043 -0.40825,3.40044 0.25944,0.48477 0.25944,0.48478 v 0.64645 0.64646 l 0.41333,0.34303 0.41333,0.34303 1.58564,0.0926 1.58564,0.0926 0.79071,-0.46708 0.7907,-0.46708 0.49392,-0.83713 0.49392,-0.83713 1.21759,-0.71355 1.21759,-0.71356 0.39361,0.15104 0.39361,0.15105 v 0.52084 0.52084 l -0.815,0.74423 -0.81499,0.74424 -0.73902,0.7499 -0.73902,0.74991 -0.51369,-0.087 -0.51369,-0.087 -0.90886,0.72757 -0.90886,0.72758 -0.43649,0.41383 -0.4365,0.41384 -0.87168,0.6431 -0.87168,0.64311 H 5.52047 Z m -28.3067,-1.62353 -0.23251,-0.036 -0.66146,-0.12039 -0.66146,-0.12038 -0.49009,-0.43825 -0.49008,-0.43825 0.10855,-1.50061 0.10854,-1.50061 0.72692,-1.04894 0.72691,-1.04894 0.20283,-0.75839 0.20282,-0.75839 h 0.37784 0.37784 l -0.0447,1.45521 -0.0447,1.45521 -0.17901,0.96093 -0.17902,0.96094 0.35248,0.21785 0.35248,0.21784 1.18674,0.069 1.18674,0.069 0.5366,-0.48972 0.5366,-0.48972 0.58178,-0.17623 0.58178,-0.17624 0.16365,-0.51563 0.16366,-0.51563 h 0.24675 0.24675 v 0.36448 0.36447 l -0.356,0.29546 -0.35601,0.29546 -0.46189,1.0243 -0.46189,1.02429 -2.05845,0.69702 -2.05844,0.69702 z m 70.48573,-2.63938 -0.33908,-0.0296 -1.40949,-0.54008 -1.40949,-0.54007 -0.38528,-0.58802 -0.38529,-0.58802 0.24931,-1.55431 0.24932,-1.5543 -0.22557,-0.23645 -0.22558,-0.23645 -0.69988,0.83176 -0.69988,0.83176 h -0.44684 -0.44685 l -0.45309,0.52917 -0.45309,0.52916 H 39.8253 39.0312 l -0.33297,0.55851 -0.33297,0.55851 -1.14642,0.49983 -1.14641,0.49982 -0.83796,-1e-5 -0.83796,-1e-5 -0.78488,-0.98368 -0.78488,-0.98367 -0.10498,-1.64859 -0.10497,-1.64859 0.57406,-0.92885 0.57406,-0.92885 -0.0811,-1.26752 -0.0811,-1.26752 -0.73321,-0.0843 -0.73321,-0.0843 -0.85429,0.53529 -0.85429,0.53529 -1.13916,1.33491 -1.13916,1.3349 h -0.60708 -0.60708 l -1.03189,0.75034 -1.03188,0.75034 -0.92604,1.11311 -0.92604,1.11312 -0.70107,0.71623 -0.70107,0.71624 -1.11348,0.85989 -1.11348,0.8599 h -0.34887 -0.34886 l -0.0941,-0.46302 -0.0941,-0.46302 0.31132,-2.11667 0.31131,-2.11666 0.45793,-1.13546 0.45793,-1.13546 -0.12872,-0.12871 -0.12872,-0.12872 -0.70759,0.26903 -0.70759,0.26902 -0.15139,-0.39451 -0.15138,-0.3945 0.15233,-0.60697 0.15234,-0.60696 0.86838,-0.98921 0.86839,-0.98921 1.18068,-0.1948 1.18068,-0.19479 0.49928,-1.05271 0.49928,-1.05271 0.31351,-0.65959 0.31351,-0.65958 0.38778,-0.0643 0.38778,-0.0643 0.43684,0.60667 0.43683,0.60667 -0.20074,1.09774 -0.20073,1.09775 -0.84914,0.96711 -0.84913,0.96711 -0.24686,0.64929 -0.24686,0.64929 v 1.1734 1.1734 h 0.29538 0.29539 l 1.79581,-1.83908 1.79582,-1.83907 1.42673,-0.91267 1.42673,-0.91267 0.68936,0.13178 0.68937,0.13178 0.15962,-0.50294 0.15963,-0.50294 1.224,-0.59467 1.224,-0.59466 0.72585,0.15942 0.72585,0.15942 0.60885,0.64809 0.60885,0.6481 -0.31957,2.44703 -0.31958,2.44704 -0.0905,1.5875 -0.0905,1.5875 0.40458,0.46302 0.40459,0.46302 h 0.36417 0.36417 l 0.1444,-0.37631 0.14441,-0.37632 1.02979,-0.41204 1.02978,-0.41204 0.51827,-0.99758 0.51827,-0.99758 1.01121,-0.77759 1.01122,-0.77759 0.92604,-1.06018 0.92604,-1.06017 0.27233,-0.54349 0.27232,-0.54348 0.78354,-0.37569 0.78354,-0.37569 1.27041,-0.12206 1.27041,-0.12207 0.36448,-0.69287 0.36449,-0.69287 1.18316,-1.15141 1.18316,-1.15142 0.52049,0.1652 0.5205,0.1652 0.34703,-0.41813 0.34702,-0.41814 0.81481,-0.38368 0.81481,-0.38368 0.89902,-0.65936 0.89903,-0.65937 1.34993,-0.0375 1.34994,-0.0374 1.85473,-0.0637 1.85473,-0.0637 0.57631,1.88705 0.57631,1.88704 -0.20414,1.24269 -0.20415,1.24269 -0.34106,0.41096 -0.34107,0.41095 H 63.7018 63.04188 l 0.17694,-0.59531 0.17694,-0.59531 0.151,-0.97471 0.15099,-0.97471 -0.71917,-0.66651 -0.71918,-0.6665 -1.23154,-0.18494 -1.23155,-0.18494 -1.98438,0.33216 -1.98437,0.33216 -0.46043,0.24515 -0.46044,0.24514 -1.05762,1.40081 -1.05762,1.40081 -0.63712,0.34098 -0.63712,0.34098 -0.51451,0.69768 -0.51451,0.69769 -0.4693,1.41576 -0.4693,1.41577 -0.90903,0.53633 -0.90902,0.53634 0.0793,1.19628 0.0793,1.19627 0.66766,0.49655 0.66766,0.49655 0.98569,0.15996 0.98568,0.15995 2.7739,-2.87884 2.77389,-2.87884 0.29642,-1.10818 0.29642,-1.10819 0.44725,-0.40475 0.44725,-0.40476 0.91451,-0.0746 0.9145,-0.0746 -0.0947,1.84968 -0.0947,1.84968 -0.73062,0.83214 -0.73063,0.83214 -0.18555,1.2373 -0.18554,1.23731 0.31567,0.38035 0.31567,0.38036 0.95979,-0.0233 0.95979,-0.0233 1.84763,-0.9689 1.84764,-0.96891 0.29252,-0.59349 0.29252,-0.59349 0.50568,-0.56531 0.50568,-0.56531 0.96765,-0.61496 0.96765,-0.61498 0.30282,-0.91757 0.30283,-0.91757 1.12991,-0.92587 1.1299,-0.92587 0.9881,-0.18537 0.988096,-0.18537 0.387834,-0.59191 0.387834,-0.59191 -0.15875,-0.4137 -0.158752,-0.4137 0.549624,-0.54962 0.549624,-0.54962 h 1.175009 1.175012 l 0.165603,0.26795 0.165605,0.26796 -0.414573,0.83103 -0.414573,0.83103 v 0.31898 0.31898 l -0.79375,1.48745 -0.79375,1.48746 v 0.49006 0.49007 l 0.177316,0.17732 0.177319,0.17732 0.637807,-0.41791 0.63781,-0.41791 0.382799,0.1469 0.382802,0.14689 0.455718,-0.57445 0.455721,-0.57446 0.707252,-0.74296 0.70725,-0.74296 h 0.946396 0.946394 v 0.39688 0.39687 H 80.70458 80.313807 l -0.421572,0.6434 -0.421568,0.64339 -1.899634,1.44115 -1.899635,1.44116 -2.339586,2.28107 -2.339582,2.28108 h -0.47638 -0.47638 l -0.14893,-0.38812 -0.14894,-0.38813 0.359,-1.26552 0.359,-1.26552 0.12825,-1.27669 0.12824,-1.27668 -0.3557,-0.1365 -0.35571,-0.1365 -0.91579,0.30224 -0.91579,0.30224 -0.29474,0.84636 -0.29475,0.84636 -0.65621,0.99219 -0.65622,0.99219 h -0.40863 -0.40864 l -1.10237,0.85989 -1.10237,0.8599 -0.49276,0.60032 -0.49275,0.60031 -1.08489,0.52417 -1.08489,0.52416 h -1.25402 -1.25401 l -0.54837,-0.69714 -0.54837,-0.69714 v -0.73917 -0.73917 l -0.41578,-0.41578 -0.41577,-0.41577 h -0.25883 -0.25882 l -0.84676,0.42907 -0.84675,0.42906 -1.05833,1.15082 -1.05834,1.15082 -1.6453,0.53678 -1.6453,0.53678 z m -2.88093,-7.11418 h 0.23628 l 0.1606,-0.41851 0.1606,-0.41851 v -0.11066 -0.11065 h -0.39688 -0.39687 v 0.52917 0.52916 z m 38.79859,5.29167 h -0.639051 l -0.120978,-0.19844 -0.120981,-0.19843 -0.183653,-1.7263 -0.183655,-1.72629 0.291791,-1.581 0.29179,-1.581 0.521179,-0.39687 0.521179,-0.39688 0.17045,-0.85924 0.17045,-0.85924 -0.329923,-0.39753 -0.329922,-0.39753 H 83.18804 82.699575 l 0.156051,-0.40666 0.156048,-0.40666 0.748549,-0.38709 0.748549,-0.38709 h 1.185934 1.185933 l 0.127882,0.46302 0.127881,0.46302 0.165708,1.22319 0.165709,1.22319 -0.672635,0.79938 -0.672634,0.79938 v 0.68941 0.68941 h 0.276889 0.276889 l 0.440486,-0.7675 0.440484,-0.7675 0.983549,-0.43394 0.983546,-0.43394 1.54006,-1.59215 1.540063,-1.59216 0.926203,0.0639 0.926206,0.0639 0.577919,-0.31305 0.577919,-0.31306 h 1.440203 1.440207 l 0.328845,0.39624 0.328843,0.39623 -0.09801,3.74138 -0.09801,3.74138 0.716838,0.53622 0.716841,0.53621 1.18575,-1.09298 1.18575,-1.093 0.65969,-0.16557 0.65969,-0.16557 0.25429,-0.72945 0.25429,-0.72945 1.56107,-1.37412 1.56108,-1.37411 0.50367,-0.93527 0.50368,-0.93527 0.72606,-0.37546 0.72606,-0.37547 0.17329,0.2804 0.1733,0.28039 -0.5832,1.55946 -0.5832,1.55946 -0.90586,0.29895 -0.90585,0.29896 -0.78734,1.55971 -0.78734,1.55971 -0.72615,0.17963 -0.72616,0.17963 -2.09177,1.67713 -2.09176,1.67713 -1.347819,-0.008 -1.347817,-0.008 -0.812647,-0.74005 -0.812643,-0.74004 -0.35051,-1.2519 -0.350507,-1.25189 0.307536,-1.37421 0.307536,-1.37422 -0.240916,-1.28956 -0.240917,-1.28955 -0.358674,-0.22728 -0.358675,-0.22727 -0.192685,-0.004 -0.192686,-0.004 -1.455208,1.4552 -1.455208,1.45521 h -0.223414 -0.223415 l -2.920026,2.85141 -2.920029,2.85141 -0.440981,0.85276 -0.440978,0.85276 h -0.639048 z m -98.6984,-1.85208 h -0.1323 v -0.13229 -0.1323 h 0.1323 0.13229 v 0.1323 0.13229 z m 31.46291,-1.03966 -0.41938,0.34805 0.0887,-0.75827 0.0887,-0.75827 0.33073,-0.1086 0.33073,-0.1086 v 0.51882 0.51882 z m -30.07385,-0.5516 -0.46302,0.004 v -0.16351 -0.16351 l 0.79375,-0.90403 0.79375,-0.90403 v -0.65255 -0.65254 l 1.09023,-1.05804 1.09024,-1.05804 h 0.3739 0.37389 l 0.54638,-0.92604 0.54638,-0.92605 h 0.10615 0.10616 v 0.90904 0.90904 l -1.38906,1.43434 -1.38906,1.43435 -1.05834,1.35703 -1.05833,1.35703 -0.46302,0.004 z m -7.08178,-1.31916 h -0.78958 v -0.21483 -0.21482 l 0.78938,-0.58362 0.78939,-0.58361 0.40572,-0.78458 0.40572,-0.78458 0.77613,-0.40135 0.77613,-0.40136 h 0.25677 0.25677 l -0.65221,1.25677 -0.65222,1.25677 -0.78621,0.72761 -0.78622,0.7276 z m 4.99848,-3.72505 -0.3641,-0.0209 -0.31151,-0.12705 -0.31151,-0.12705 0.28201,-0.84425 0.28202,-0.84425 0.53864,-0.59531 0.53863,-0.59532 h 0.26756 0.26756 l 0.5874,-0.55183 0.5874,-0.55184 0.53496,0.28631 0.53497,0.2863 0.48218,-0.16059 0.48219,-0.16059 -2.01715,2.01361 -2.01716,2.01362 z m 8.4743,-3.70966 -0.95118,0.0264 -0.43788,-0.48386 -0.43788,-0.48385 v -0.43609 -0.43609 l 0.59531,-0.38144 0.59531,-0.38143 1.07418,-0.28278 1.07418,-0.28277 1.70395,-1.47039 1.70395,-1.47039 0.23886,-0.51733 0.23887,-0.51733 h 0.171 0.171 l 0.31774,0.87868 0.31773,0.87868 v 0.35726 0.35725 l 0.41024,0.45331 0.41025,0.45332 -0.76464,0.26655 -0.76465,0.26656 -0.64027,-0.1224 -0.64027,-0.12239 -0.61237,0.65184 -0.61238,0.65184 -0.44347,0.88056 -0.44348,0.88057 -0.66146,0.17968 -0.66145,0.17969 -0.95119,0.0264 z"
           id="path4608"
           inkscape:connector-curvature="0" />
        <path
           style="fill:#474b39;fill-opacity:1;stroke-width:0.26458335"
           d="m 139.05774,230.03297 -3.18144,0.12395 -1.2135,-0.18797 -1.21349,-0.18796 -0.72982,-0.4782 -0.72982,-0.47819 -0.85289,-0.3082 -0.85289,-0.30819 -2.16473,-2.30618 -2.16474,-2.30617 v -0.55549 -0.55549 l -0.26534,-0.49579 -0.26534,-0.4958 -0.12521,-1.80192 -0.12521,-1.80191 -0.24996,-1.82382 -0.24995,-1.82382 0.26118,-0.68697 0.26119,-0.68697 -0.15835,-0.84404 -0.15834,-0.84403 0.25107,-1.14309 0.25107,-1.1431 0.44742,-2.24896 0.44743,-2.24895 0.25732,-0.70147 0.25732,-0.70147 0.64018,-0.60142 0.64019,-0.60143 0.003,-0.4169 0.003,-0.4169 0.65827,-1.15148 0.65827,-1.15149 v -0.76342 -0.76343 l 1.12448,-0.70815 1.12448,-0.70816 0.34067,-0.41964 0.34067,-0.41964 0.6654,-1.00892 0.66539,-1.00891 0.42722,0.0829 0.42722,0.0829 0.098,0.29431 0.098,0.29431 -1.16205,1.42653 -1.16204,1.42654 -0.20698,0.6604 -0.20699,0.66041 -0.63471,0.79375 -0.63472,0.79375 -0.52054,0.61873 -0.52055,0.61873 -0.1151,0.5719 -0.1151,0.57189 -0.43551,1.98438 -0.43551,1.98437 -0.37459,0.99755 -0.3746,0.99754 v 1.05959 1.05959 l -0.51676,1.47027 -0.51676,1.47028 0.51834,1.31504 0.51834,1.31503 -0.15627,0.62262 -0.15627,0.62262 0.81615,1.76329 0.81615,1.76329 v 0.76646 0.76646 l 1.21019,1.36261 1.21019,1.36261 1.18715,1.02747 1.18715,1.02748 h 0.77434 0.77434 l 0.6681,1.05833 0.66809,1.05833 h 2.68316 2.68316 l 0.95154,-1.02247 0.95155,-1.02246 0.79375,-0.14303 0.79375,-0.14302 1.13913,-0.42575 1.13912,-0.42576 2.67238,-2.77728 2.67238,-2.77729 0.11809,0.11809 0.11808,0.11808 -0.42386,0.60515 -0.42386,0.60515 v 0.47177 0.47178 l -1.52136,1.53802 -1.52135,1.53803 -1.25677,0.8866 -1.25677,0.8866 v 0.31101 0.31102 l -0.53738,0.48632 -0.53739,0.48632 -1.90356,0.60354 -1.90357,0.60353 z m 21.78396,-4.86747 h -1 l -0.53645,-0.57581 -0.53645,-0.57581 -0.15446,-0.48668 -0.15447,-0.48668 0.30995,-0.93913 0.30994,-0.93913 -0.16752,-0.89294 -0.16752,-0.89294 0.53819,-1.00413 0.53818,-1.00412 0.001,-0.26851 0.001,-0.2685 1.6123,-1.55143 1.61231,-1.55143 0.37374,-0.8945 0.37375,-0.8945 0.98924,-0.60313 0.98925,-0.60312 1.012,-0.34867 1.01199,-0.34867 0.12035,0.12034 0.12034,0.12034 -2.39457,2.40829 -2.39456,2.40828 -0.49763,1.16092 -0.49763,1.16091 -0.81983,0.93374 -0.81983,0.93374 v 1.05387 1.05387 l 0.54837,0.69714 0.54837,0.69714 h 1.14985 1.14986 l 1.14078,-0.99219 1.14078,-0.99219 0.87635,-0.84462 0.87635,-0.84463 1.31317,-1.09945 1.31318,-1.09945 0.16232,-0.70176 0.16232,-0.70175 0.3715,-0.59532 0.3715,-0.59531 h 0.78765 0.78765 v 0.93454 0.93454 l -0.40951,0.98008 -0.4095,0.98008 -0.54718,0.58245 -0.54718,0.58245 -0.13305,1.18042 -0.13306,1.18042 0.73809,0.48361 0.73808,0.48361 1.50833,-0.0747 1.50834,-0.0748 0.14175,0.36941 0.14176,0.36942 -0.17396,0.24059 -0.17406,0.24059 -1.09436,0.59531 -1.09436,0.59532 h -1.35871 -1.35871 l -0.22291,-0.59532 -0.22291,-0.59531 -0.37259,-1.19063 -0.3726,-1.19062 -1.05247,0.0617 -1.05247,0.0617 -1.37514,1.44528 -1.37515,1.44527 -1.38485,0.41126 -1.38486,0.41126 z m 30.63435,-0.007 -0.56642,-0.007 -0.66146,-0.38934 -0.66146,-0.38934 -0.7276,-0.25853 -0.72761,-0.25853 -0.042,-1.26332 -0.042,-1.26331 0.0714,-1.45521 0.0714,-1.45521 0.37423,-0.72761 0.37422,-0.7276 h 0.20907 0.20907 l 0.57789,-1.02821 0.57788,-1.02821 v -0.79148 -0.79147 l -0.33539,-0.27835 -0.33539,-0.27835 -0.65679,0.50465 -0.6568,0.50465 -0.7183,0.006 -0.71829,0.006 -0.29812,-0.55703 -0.29811,-0.55703 0.60229,-1.87312 0.60229,-1.87312 0.49629,-0.4963 0.49629,-0.49629 0.71158,0.0822 0.71158,0.0822 -0.0645,1.5875 -0.0645,1.5875 -0.15377,0.65427 -0.15377,0.65428 0.50369,-0.45584 0.5037,-0.45584 h 0.32362 0.32362 l 0.99902,-0.57496 0.99903,-0.57497 0.45509,0.17464 0.4551,0.17464 -0.17976,0.99564 -0.17975,0.99564 -0.2603,0.52917 -0.26029,0.52916 -0.97863,0.92604 -0.97863,0.92605 -0.47817,2.56596 -0.47817,2.56597 0.16825,0.67037 0.16826,0.67036 0.72377,0.3699 0.72377,0.3699 1.47933,-0.20427 1.47933,-0.20427 0.80371,-0.41561 0.80371,-0.41562 0.15605,-0.40666 0.15605,-0.40666 h 0.58359 0.5836 l -0.53249,0.59531 -0.53249,0.59532 -0.59354,0.99218 -0.59355,0.99219 -0.83832,0.006 -0.83831,0.006 -1.15338,0.52336 -1.15337,0.52336 -0.56642,-0.007 z m 12.39816,-0.37703 -0.52916,0.13787 -1.01087,-0.69288 -1.01087,-0.69288 0.17821,-1.66406 0.17821,-1.66407 -0.32976,-0.61616 -0.32977,-0.61616 0.3356,-0.11187 0.3356,-0.11187 0.49609,-0.49609 0.4961,-0.4961 v -0.82387 -0.82387 l 0.56291,-1.00156 0.56291,-1.00156 0.56157,-0.27065 0.56157,-0.27065 0.67418,-0.14451 0.67418,-0.14451 0.629,-1.13284 0.629,-1.13285 0.28432,-0.19439 0.28432,-0.19438 0.71198,-0.004 0.712,-0.004 0.1933,0.31278 0.1933,0.31277 -0.91569,0.81171 -0.91569,0.8117 -0.9483,1.32292 -0.94831,1.32291 -0.18172,0.58936 -0.18171,0.58936 -0.9101,1.08932 -0.91011,1.08932 v 1.54747 1.54746 l 0.55769,0.39062 0.55768,0.39061 0.96367,-0.15383 0.96367,-0.15383 1.65365,-1.05821 1.65364,-1.0582 v -0.24481 -0.24481 l 1.55996,-1.63075 1.55996,-1.63074 0.41247,-0.99591 0.41247,-0.99591 0.40882,-0.15688 0.40882,-0.15688 0.4061,0.15584 0.4061,0.15583 -0.38211,0.60008 -0.38211,0.60008 -0.42086,1.67501 -0.42087,1.67502 v 1.18665 1.18665 l 0.2739,0.51177 0.27389,0.51177 h 1.25474 1.25473 l 0.65418,-0.43686 0.65419,-0.43686 0.88874,-0.81991 0.88875,-0.81991 0.63593,-0.99219 0.63593,-0.99218 h 0.65813 0.65814 l -0.009,0.19843 -0.009,0.19844 -0.32135,0.56338 -0.32135,0.56338 -0.98204,1.0798 -0.98205,1.0798 -1.13462,0.73042 -1.13463,0.73042 -0.57657,0.54814 -0.57657,0.54814 -1.29048,0.33074 -1.29048,0.33074 -0.45784,-0.17569 -0.45784,-0.17568 -0.43135,-0.82784 -0.43135,-0.82783 -0.16098,-0.77397 -0.16097,-0.77397 -0.70221,-0.23407 -0.70221,-0.23407 -2.28514,1.86794 -2.28514,1.86793 -0.9746,0.004 -0.9746,0.004 -0.52917,0.13787 z m -27.35368,-2.52635 h -0.29528 v -0.14441 -0.14441 l 0.66209,-1.24465 0.66208,-1.24465 0.9704,-0.66146 0.97041,-0.66146 1.23171,-1.5875 1.23172,-1.5875 0.83996,-0.0829 0.83997,-0.0829 v 0.29449 0.29448 l -0.40296,0.77924 -0.40296,0.77924 -1.25379,0.63534 -1.25378,0.63534 -0.47353,1.07328 -0.47353,1.07328 -1.27861,0.93858 -1.27861,0.93859 z m -22.04042,-5.02708 h -0.23188 l -0.14245,-0.37123 -0.14245,-0.37122 0.553,-1.08398 0.55301,-1.08399 h 0.42612 0.42611 l -0.1556,0.95886 -0.1556,0.95886 -0.44919,0.49635 -0.44919,0.49635 z m 70.26379,-0.52917 h -0.36448 v -0.39687 -0.39688 l 0.59531,-0.59531 0.59532,-0.59531 0.0865,0.60987 0.0865,0.60988 -0.3173,0.38231 -0.31729,0.38231 z m -47.5527,-3.4727 -0.35318,0.29311 -0.17409,-0.17409 -0.17409,-0.1741 v -1.00178 -1.00179 l -0.30474,-0.66882 -0.30473,-0.66882 -0.55517,-0.19702 -0.55515,-0.19702 -2.4474,0.0588 -2.4474,0.0588 v -0.35503 -0.35503 l 0.49348,-0.44659 0.49347,-0.44659 3.13413,0.0748 3.13413,0.0748 0.16337,0.79375 0.16336,0.79375 0.33637,0.53552 0.33638,0.53551 -0.29279,1.08731 -0.29278,1.08731 z m 43.27642,-0.2361 -0.51368,0.63437 -0.32458,-0.6065 -0.32459,-0.6065 0.13671,-0.52279 0.13671,-0.52279 -0.93518,-1.03514 -0.93519,-1.03514 -1.02872,-0.277 -1.02872,-0.27701 -0.51288,0.27448 -0.51288,0.27449 h -0.66323 -0.66324 l -0.15634,-0.25296 -0.15633,-0.25296 0.63924,-0.41885 0.63925,-0.41885 0.89054,0.007 0.89054,0.007 2.15525,-0.11196 2.15524,-0.11196 0.18189,0.84309 0.18188,0.84308 0.131,1.46644 0.13099,1.46644 -0.51368,0.63437 z m -69.06869,-9.02277 -0.1768,-0.0316 -0.86009,-0.31259 -0.8601,-0.31259 -0.3173,-0.3173 -0.3173,-0.31731 h -0.70844 -0.70844 l -0.33561,-0.40439 -0.33562,-0.40439 0.1656,-2.14746 0.1656,-2.14746 0.4089,-0.62405 0.40889,-0.62406 1.04638,-0.66055 1.04639,-0.66055 h 0.13755 0.13755 v 0.27862 0.27862 l -0.66146,0.97342 -0.66146,0.97343 v 0.98129 0.9813 l 0.25705,0.15887 0.25705,0.15887 0.5367,1.21329 0.5367,1.2133 v 0.47992 0.47992 l 0.24238,0.1498 0.24238,0.1498 0.68366,-0.25993 0.68366,-0.25993 v 0.36202 0.36202 l -0.41851,0.1606 -0.41851,0.1606 z m 2.33674,-1.29135 h -0.35278 l 0.17639,-0.17638 0.17639,-0.17639 0.17639,0.17639 0.17639,0.17638 z m 2.63083,-1.05833 h -0.51416 v -0.338 -0.33801 l 0.3907,-0.5578 0.3907,-0.55781 0.73226,-0.18378 0.73226,-0.18379 0.68432,-0.81971 0.68432,-0.81971 0.16831,0.27232 0.1683,0.27231 -0.65798,0.89184 -0.65798,0.89184 -0.45771,0.25174 -0.45771,0.25174 -0.34573,0.48341 -0.34574,0.48341 z m 4.4434,-5.87233 -0.41031,0.0808 -0.2151,-0.34538 -0.2151,-0.34538 0.0827,-2.83069 0.0827,-2.83069 -0.42139,-0.60162 -0.42139,-0.60162 -0.004,-0.66873 -0.004,-0.66873 -1.25295,-0.73705 -1.25296,-0.73704 -0.66146,-0.3611 -0.66146,-0.36109 -1.26057,-0.29093 -1.26056,-0.29092 -1.25298,0.002 -1.25297,0.002 -1.71979,0.26768 -1.71979,0.26767 -0.72761,0.14823 -0.7276,0.14822 0.001,-0.35175 0.001,-0.35175 1.20173,-0.97243 1.20172,-0.97243 1.66934,-0.17877 1.66933,-0.17877 1.55969,0.35665 1.55969,0.35665 1.7198,7.9e-4 1.71979,8e-4 0.0829,0.5828 0.0829,0.5828 0.51946,0.16487 0.51945,0.16487 0.4172,0.63673 0.4172,0.63673 0.89867,0.55541 0.89867,0.5554 v 0.92186 0.92186 l 0.27905,0.52141 0.27904,0.5214 -0.004,2.4266 -0.004,2.4266 -0.50167,0.67262 -0.50167,0.67262 -0.41031,0.0808 z m -8.77093,-1.27142 h -0.35517 l -0.35314,-0.42551 -0.35314,-0.4255 0.5036,-0.36825 0.50361,-0.36824 h 0.47859 0.4786 v 0.28198 0.28198 l -0.27389,0.51177 -0.2739,0.51177 z m -15.22349,-3.43958 h -0.27773 v -0.65814 -0.65814 l 0.99219,-0.63046 0.99219,-0.63046 0.50403,-0.56348 0.50402,-0.56349 h 0.35587 0.35587 v 0.17527 0.17528 l -0.8285,1.29111 -0.82851,1.29111 -0.74586,0.3857 -0.74585,0.3857 z m 4.76106,-3.70417 h -0.18809 l -0.1692,-0.1692 -0.16919,-0.16919 0.14071,-0.22768 0.14071,-0.22768 h 0.54595 0.54595 l -0.32938,0.39688 -0.32937,0.39687 z m 0.96541,-1.05833 h -0.23998 l 0.1606,-0.41852 0.1606,-0.41851 v -0.11065 -0.11066 h 0.39688 0.39687 v 0.21167 0.21167 l -0.3175,0.3175 -0.3175,0.3175 z"
           id="path4621"
           inkscape:connector-curvature="0" />
      </g>
    </g>
  </g>
</svg>
